<svg width="194" height="144" viewBox="0 0 194 144" fill="none" xmlns="http://www.w3.org/2000/svg">
<path d="M40.6705 115.601C42.7948 114.33 44.8835 112.968 46.9533 111.606C49.0231 110.244 51.0559 108.828 53.0712 107.394C55.0865 105.96 57.1206 104.525 59.0996 103.018C61.0786 101.511 63.0753 100.041 65.018 98.4794C65.4861 98.1484 66.0629 98.0085 66.6306 98.0881C67.1983 98.1677 67.714 98.461 68.073 98.9079C68.432 99.3549 68.6071 99.922 68.5624 100.493C68.5176 101.065 68.2569 101.598 67.8328 101.984L67.5961 102.165C65.4718 103.454 63.3839 104.798 61.3141 106.178C59.2444 107.557 57.2292 108.974 55.1776 110.372C53.126 111.77 51.1287 113.24 49.1315 114.711C47.1343 116.182 45.1558 117.688 43.2494 119.268C43.0232 119.467 42.7589 119.619 42.4728 119.714C42.1868 119.81 41.8842 119.847 41.5836 119.823C41.2831 119.799 40.9904 119.715 40.7228 119.576C40.4553 119.437 40.2182 119.246 40.026 119.014C39.8338 118.781 39.6904 118.513 39.604 118.224C39.5176 117.935 39.4903 117.632 39.5234 117.332C39.5564 117.032 39.6492 116.742 39.7964 116.479C39.9437 116.216 40.1425 115.985 40.3806 115.8C40.4701 115.723 40.5668 115.657 40.6705 115.601Z" fill="#5A50FF"/>
<path d="M57.3929 117.035L75.3308 102.092C75.5528 101.873 75.818 101.703 76.1092 101.592C76.4004 101.481 76.711 101.431 77.0223 101.447C77.3336 101.462 77.6389 101.542 77.9177 101.681C78.1966 101.821 78.4427 102.016 78.642 102.256C78.8413 102.496 78.9894 102.774 79.0755 103.074C79.1616 103.373 79.1845 103.687 79.1429 103.996C79.1012 104.305 78.9959 104.602 78.8335 104.868C78.6711 105.134 78.4553 105.364 78.1996 105.542L78.072 105.651L58.9904 119.123C58.7135 119.335 58.3635 119.428 58.0179 119.382C57.6723 119.336 57.3592 119.154 57.1473 118.878C56.9354 118.601 56.8425 118.251 56.8885 117.905C56.9344 117.56 57.116 117.247 57.3929 117.035Z" fill="#5A50FF"/>
<path d="M127.602 113.476C131.379 110.716 135.046 107.83 138.695 104.925C140.511 103.49 142.326 101.983 144.142 100.495C145.958 99.0059 147.773 97.4807 149.426 95.9011C149.873 95.5283 150.446 95.343 151.027 95.3842C151.607 95.4253 152.149 95.6896 152.539 96.1218C152.929 96.5539 153.137 97.1203 153.118 97.702C153.099 98.2837 152.856 98.8356 152.439 99.2419L152.24 99.4052C150.333 100.749 148.481 102.165 146.63 103.581C144.778 104.997 142.998 106.45 141.183 107.957C137.552 110.898 133.921 113.876 130.471 117.035C130.25 117.235 129.991 117.39 129.709 117.489C129.428 117.589 129.13 117.632 128.833 117.615C128.535 117.598 128.243 117.523 127.974 117.392C127.706 117.262 127.467 117.08 127.27 116.856C127.072 116.632 126.921 116.372 126.825 116.089C126.73 115.806 126.691 115.508 126.712 115.21C126.733 114.913 126.813 114.622 126.947 114.356C127.081 114.089 127.267 113.852 127.493 113.658L127.602 113.476Z" fill="#5A50FF"/>
<path d="M164.295 103.563C160.882 106.159 157.377 108.61 153.909 111.134C150.442 113.658 146.901 116.073 143.307 118.397C142.987 118.605 142.6 118.685 142.224 118.62C141.848 118.555 141.511 118.349 141.281 118.045C141.05 117.741 140.944 117.361 140.983 116.981C141.022 116.602 141.203 116.251 141.491 116C144.759 113.204 148.118 110.553 151.44 107.848C154.763 105.143 158.158 102.51 161.589 99.9501C161.828 99.7736 162.099 99.6458 162.386 99.5741C162.674 99.5023 162.973 99.4879 163.267 99.5318C163.56 99.5756 163.842 99.6769 164.096 99.8296C164.351 99.9824 164.573 100.184 164.749 100.422C164.925 100.661 165.053 100.931 165.125 101.219C165.197 101.507 165.211 101.806 165.167 102.099C165.124 102.393 165.022 102.675 164.87 102.929C164.717 103.183 164.515 103.405 164.276 103.581L164.295 103.563Z" fill="#5A50FF"/>
<path d="M90.5991 113.712L86.2418 113.313C87.8759 95.8466 90.2183 59.8977 90.6177 53.5975C90.3256 53.2134 90.0642 52.8067 89.8367 52.3811C89.6733 52.0715 89.479 51.7795 89.256 51.5096L88.3482 50.9104V49.8574C88.3482 48.8043 88.2214 47.8239 88.1488 46.8798C87.8412 44.3229 87.8412 41.7384 88.1488 39.1816C88.2637 38.5157 88.1779 37.8308 87.9032 37.2134C87.6285 36.5961 87.1769 36.0742 86.6053 35.7139C81.5216 32.6455 77.9266 31.5379 70.6097 33.3717C69.1754 35.4051 67.7227 37.3297 66.3065 39.1998C64.4909 41.5419 62.8569 43.7569 61.7675 45.5362L58.0459 43.2485C59.226 41.3058 60.9688 39 62.8207 36.5671C64.364 34.5155 65.9618 32.4094 67.4688 30.2125L67.9227 29.5408L68.7037 29.3411C76.9102 27.1442 81.9937 27.816 88.8748 31.9737C90.205 32.776 91.2626 33.9601 91.9103 35.372C92.558 36.7839 92.7657 38.3582 92.506 39.8897C92.2855 42.1011 92.3156 44.3303 92.5965 46.5348C92.5965 47.2429 92.706 47.9691 92.7605 48.7317C93.1224 49.1808 93.444 49.6607 93.7223 50.166C93.8751 50.4873 94.0702 50.7866 94.303 51.0557L95.2472 51.7637L95.1567 52.9439C95.0115 53.3615 92.3966 94.5757 90.5991 113.712Z" fill="#08104D"/>
<path d="M22.5141 92.4516C24.1845 89.2379 26.0009 85.8427 27.8528 82.6291C29.7047 79.4155 31.6655 76.1837 33.6808 73.0246C37.7234 66.6892 42.1748 60.6243 47.007 54.8686C47.2902 54.5314 47.6954 54.3197 48.1338 54.2795C48.5723 54.2392 49.0086 54.3737 49.3484 54.6537C49.6882 54.9337 49.9033 55.3364 49.9476 55.7745C49.992 56.2125 49.8618 56.6504 49.5851 56.9928C44.9542 62.7145 40.7085 68.7374 36.8758 75.0217C34.9755 78.1566 33.1599 81.34 31.429 84.5718C29.6134 87.8399 28.0338 91.0354 26.3634 94.4487C26.1082 94.9687 25.6572 95.3661 25.109 95.5534C24.5608 95.7407 23.9606 95.7025 23.4405 95.4472C22.9205 95.192 22.5232 94.7408 22.3359 94.1926C22.1487 93.6444 22.1871 93.0442 22.4423 92.5241L22.5141 92.4516Z" fill="#08104D"/>
<path d="M91.2353 113.077C90.9533 117.915 89.5622 122.624 87.1688 126.839C84.7338 130.985 81.3952 134.529 77.4011 137.206C73.4795 139.818 69.1181 141.7 64.5278 142.762C60.0117 143.833 55.359 144.212 50.7291 143.887C46.044 143.624 41.45 142.485 37.1847 140.529C32.8726 138.536 29.0543 135.616 26.0012 131.977C22.9739 128.319 20.7694 124.053 19.5376 119.468C18.3094 114.922 17.9333 110.188 18.4294 105.506C19.6291 96.0349 24.4836 87.4083 31.956 81.4671C35.6256 78.4694 39.8349 76.2014 44.3567 74.7856C48.9145 73.3925 53.7004 72.9053 58.4454 73.3513C67.9772 74.4776 76.7253 79.1826 82.9197 86.5144C83.7004 87.3859 84.4093 88.3301 85.1174 89.2923C85.8333 90.2792 86.4757 91.3168 87.0411 92.3969C88.1704 94.5229 89.0711 96.7625 89.7282 99.0783C90.986 103.632 91.4951 108.36 91.2353 113.077ZM85.6794 112.768C86.097 104.543 84.1909 96.0827 78.7441 90.0912C73.5008 83.7302 66.0383 79.5965 57.8647 78.5257C49.6593 77.6852 41.453 80.1119 35.0243 85.2798C28.4653 90.3655 24.1521 97.8121 23.0048 106.032C22.4842 110.113 22.7849 114.256 23.8886 118.219C24.9924 122.182 26.877 125.884 29.4321 129.108C32.113 132.247 35.4158 134.795 39.1315 136.591C42.8472 138.388 46.8953 139.395 51.0198 139.548C55.1954 139.794 59.3837 139.396 63.4383 138.368C67.4355 137.335 71.209 135.575 74.5686 133.175C77.8551 130.826 80.5771 127.775 82.5385 124.243C84.4685 120.69 85.5439 116.736 85.6794 112.695V112.768Z" fill="#08104D"/>
<path d="M53.5612 134.628C52.6999 134.623 51.8396 134.575 50.9832 134.483C36.3131 133.03 26.9264 121.774 28.1791 107.085C28.7601 100.259 31.5378 95.5018 37.493 91.1262C41.3602 88.312 48.9499 83.6822 56.5391 84.4266C63.5645 85.0453 70.0588 88.4233 74.5985 93.8206C79.1382 99.2179 81.353 106.195 80.7589 113.222L78.798 113.041L80.7589 113.222C80.0872 119.867 76.0746 125.477 68.8485 129.889C64.3003 132.876 59.0015 134.519 53.5612 134.628ZM54.8325 88.2758C48.95 88.2758 42.9766 91.907 39.8174 94.2854C34.7337 98.0074 32.5546 101.693 32.0825 107.412C31.0295 119.813 38.9639 129.345 51.3644 130.597C56.8208 131.059 62.27 129.629 66.7971 126.549C73.0246 122.754 76.3109 118.269 76.8556 112.841C77.3485 106.849 75.4475 100.905 71.5683 96.3113C67.6892 91.7176 62.1481 88.8478 56.1579 88.3302C55.7221 88.2939 55.2683 88.2758 54.8325 88.2758Z" fill="#08104D"/>
<path d="M91.3264 54.0152C87.1708 49.215 81.5371 45.9323 75.3122 44.6831C69.1876 43.1383 62.706 43.955 57.1561 46.9707L57.7377 46.426L52.5267 51.9999C52.3542 52.1642 52.1297 52.2627 51.8919 52.2781C51.6542 52.2936 51.4186 52.2252 51.2262 52.0847C51.0338 51.9441 50.8963 51.7405 50.8388 51.5093C50.7812 51.2781 50.8066 51.0342 50.9106 50.8198L54.5418 44.1384L54.6508 43.9568L55.1233 43.6118C58.29 41.7727 61.8113 40.6278 65.454 40.253C69.0285 39.8751 72.64 40.0836 76.1473 40.8702C79.6353 41.638 82.9889 42.9232 86.0967 44.6831C89.2684 46.4456 92.0777 48.7928 94.376 51.6005C94.5369 51.802 94.6572 52.0332 94.7288 52.2809C94.8004 52.5286 94.8222 52.788 94.7936 53.0442C94.7649 53.3005 94.6858 53.5486 94.5613 53.7744C94.4367 54.0002 94.269 54.1992 94.0675 54.3602C93.866 54.5211 93.6353 54.6408 93.3875 54.7124C93.1398 54.784 92.8805 54.8061 92.6242 54.7775C92.368 54.7488 92.1195 54.6699 91.8937 54.5453C91.6679 54.4208 91.4687 54.253 91.3077 54.0515L91.3264 54.0152Z" fill="#08104D"/>
<path d="M153.31 69.3208C152.167 67.2692 150.841 65.3264 149.679 63.3474L145.867 57.4649C144.596 55.5404 143.27 53.634 141.89 51.8547C140.589 50.113 139.084 48.5341 137.406 47.1523L138.241 47.5698C137.453 47.3377 136.678 47.0649 135.918 46.7528C135.331 46.5051 134.724 46.3107 134.102 46.1719L133.158 45.9903L132.649 45.1552C130.053 41.0337 126.876 36.9485 123.971 32.7L125.205 33.5716C122.592 32.7869 119.87 32.4313 117.144 32.5185C114.493 32.7642 111.933 33.6152 109.663 35.0059C108.229 35.8048 107.703 36.1315 107.249 37.003C107.033 37.4076 106.903 37.8528 106.868 38.3103C106.851 38.919 106.899 39.5277 107.013 40.1259C107.303 43.4848 107.013 46.1719 107.503 48.9679L106.559 51.0739C106.412 51.2113 106.272 51.3569 106.141 51.5098L105.434 52.3812L104.635 53.3798C104.282 53.8346 103.872 54.2432 103.418 54.5962L104.271 52.5083C105.724 62.6576 106.831 72.7523 107.449 82.9923C107.757 88.1123 107.884 93.1959 108.029 98.2796C108.175 103.363 108.284 108.411 108.738 113.349C108.788 113.927 108.607 114.501 108.234 114.946C107.861 115.39 107.327 115.668 106.749 115.719C106.463 115.744 106.176 115.712 105.902 115.626C105.628 115.539 105.374 115.4 105.154 115.215C104.709 114.842 104.431 114.308 104.38 113.73C103.908 108.556 103.8 103.454 103.654 98.3886C103.509 93.323 103.382 88.2575 103.091 83.2283C102.492 73.188 101.385 63.0933 99.9505 53.1437L99.7324 51.6368L100.803 51.0739C100.803 51.0739 101.076 50.8016 101.294 50.5474L102.002 49.6578L102.819 48.6411C103.201 48.1692 103.647 47.7536 104.145 47.4065L103.182 49.5125C102.71 46.426 102.91 43.1398 102.674 40.5798C102.511 39.7124 102.455 38.8281 102.51 37.9472C102.601 36.9149 102.891 35.91 103.364 34.9877C103.851 34.0659 104.518 33.251 105.325 32.5911C106.024 32.0802 106.758 31.6191 107.521 31.2112C110.35 29.5093 113.529 28.4725 116.818 28.1792C120.038 28.0548 123.257 28.4534 126.349 29.3594L127.112 29.5591L127.583 30.2308C129 32.3188 130.488 34.3704 131.977 36.4402C133.466 38.51 134.974 40.6161 136.372 42.8857L134.919 41.887C135.771 42.0744 136.604 42.3419 137.406 42.6859C138.114 42.9582 138.786 43.2305 139.222 43.3576L139.73 43.5029L140.039 43.7935C141.899 45.4941 143.545 47.4145 144.941 49.5125C146.321 51.5097 147.555 53.5614 148.754 55.5949L152.258 61.7315C153.42 63.765 154.491 65.8712 155.762 67.832C155.866 67.9952 155.937 68.1774 155.97 68.368C156.004 68.5587 155.999 68.754 155.957 68.943C155.915 69.1319 155.836 69.3106 155.724 69.4689C155.613 69.6272 155.471 69.762 155.308 69.8655C155.146 69.9691 154.965 70.0396 154.776 70.0728C154.587 70.1061 154.393 70.1015 154.206 70.0593C154.018 70.0171 153.841 69.9381 153.685 69.8269C153.528 69.7157 153.394 69.5746 153.293 69.4116L153.31 69.3208Z" fill="#08104D"/>
<path d="M170.123 98.552L163.587 86.5691L160.337 80.5775C159.284 78.544 158.104 76.6014 157.214 74.4771C157.095 74.1436 157.097 73.7786 157.22 73.4463C157.342 73.114 157.578 72.8357 157.886 72.6602C158.194 72.4846 158.554 72.4231 158.902 72.4864C159.251 72.5498 159.566 72.7339 159.792 73.0065C161.172 74.8221 162.243 76.8738 163.423 78.8346L166.963 84.7172L173.99 96.5368C174.137 96.7835 174.233 97.0567 174.275 97.3408C174.316 97.6249 174.3 97.9144 174.229 98.1926C174.158 98.4707 174.033 98.7323 173.861 98.9622C173.69 99.1921 173.474 99.3858 173.228 99.5324C172.981 99.6791 172.708 99.7757 172.423 99.8168C172.139 99.8578 171.85 99.8425 171.572 99.7717C171.293 99.7009 171.032 99.5759 170.802 99.404C170.572 99.2321 170.379 99.0167 170.232 98.7699L170.123 98.552Z" fill="#08104D"/>
<path d="M108.592 112.732C108.804 116.843 109.959 120.85 111.969 124.442C114.017 128.002 116.841 131.055 120.231 133.375C127.236 138.018 135.604 140.161 143.979 139.458C148.122 139.224 152.185 138.22 155.961 136.498C159.683 134.764 162.975 132.228 165.602 129.072C168.171 125.843 170.071 122.135 171.19 118.163C172.309 114.192 172.626 110.037 172.121 105.941C170.941 97.6954 166.657 90.211 160.144 85.0176C153.631 79.8242 145.381 77.3137 137.079 77.9993C128.762 79.0319 121.146 83.1774 115.764 89.601C110.172 95.7196 108.211 104.38 108.592 112.732ZM104.489 112.968C104.213 108.327 104.698 103.672 105.924 99.1874C106.553 96.9194 107.43 94.7276 108.538 92.6512C109.653 90.5713 111.005 88.6277 112.568 86.8594C118.62 79.5861 127.217 74.892 136.607 73.7327C141.292 73.2671 146.023 73.7235 150.533 75.0762C157.275 77.1711 163.282 81.1384 167.856 86.5161C172.431 91.8938 175.383 98.4605 176.369 105.451C176.869 110.12 176.506 114.84 175.298 119.377C174.079 123.955 171.887 128.215 168.871 131.868C165.84 135.517 162.039 138.449 157.741 140.456C153.479 142.42 148.882 143.56 144.196 143.815C134.842 144.537 125.517 142.087 117.725 136.861C113.829 134.16 110.589 130.617 108.247 126.494C105.967 122.336 104.681 117.706 104.489 112.968Z" fill="#08104D"/>
<path d="M117.997 112.859C118.28 115.643 119.35 118.288 121.083 120.484C122.924 122.746 125.134 124.679 127.62 126.204C132.397 129.591 138.243 131.127 144.069 130.525C146.936 130.29 149.726 129.474 152.267 128.125C154.808 126.776 157.047 124.924 158.848 122.681C162.309 117.985 163.777 112.113 162.933 106.341C162.677 103.477 161.784 100.706 160.32 98.2309C158.856 95.7558 156.859 93.6386 154.472 92.0339C152.016 90.4933 149.274 89.4623 146.411 89.0019C144.832 88.7114 143.343 88.4209 141.855 88.203C141.128 88.203 140.402 88.0396 139.712 88.0215C139.392 87.9941 139.069 87.9941 138.749 88.0215L137.678 88.1848C131.847 89.0458 126.549 92.0575 122.826 96.6274C119.137 101.188 117.402 107.023 117.997 112.859ZM114.366 113.222C113.753 106.457 115.834 99.7239 120.158 94.485C124.431 89.2788 130.502 85.8645 137.17 84.9167L138.404 84.7352H139.766C140.611 84.7596 141.453 84.8323 142.29 84.9531C143.906 85.1528 145.467 85.4614 146.974 85.7338C150.298 86.2372 153.486 87.4109 156.343 89.1835C159.214 91.0182 161.609 93.507 163.332 96.4459C165.017 99.3646 166.093 102.595 166.492 105.941C167.503 112.671 165.819 119.527 161.808 125.023C158.581 128.958 154.282 131.871 149.431 133.409C144.58 134.946 139.387 135.042 134.483 133.684C131.294 132.741 128.272 131.301 125.532 129.417C122.707 127.626 120.203 125.374 118.124 122.754C116.002 119.994 114.705 116.689 114.384 113.222H114.366Z" fill="#08104D"/>
<path d="M104.053 55.4496L101.094 52.8715C112.623 39.5631 125.133 36.985 140.493 44.8102L138.678 48.2962C124.861 41.2516 114.493 43.3759 104.053 55.4496Z" fill="#08104D"/>
<path d="M85.1171 69.5023L85.4433 66.2524C85.4895 65.8626 85.6173 65.4867 85.8174 65.149C86.0175 64.8113 86.2858 64.5192 86.6055 64.2915C95.6836 57.828 101.476 58.5905 109.628 64.2007C110.004 64.4548 110.31 64.7988 110.52 65.2015C110.729 65.6042 110.834 66.0527 110.825 66.5065V70.1377C110.812 70.6009 110.682 71.0532 110.447 71.4524C110.212 71.8516 109.879 72.1845 109.48 72.4203C109.081 72.656 108.629 72.7868 108.166 72.8004C107.703 72.814 107.244 72.71 106.832 72.4981C104.148 70.9198 101.097 70.0739 97.9841 70.0453C94.8711 70.0166 91.8052 70.8061 89.0931 72.3346C88.6457 72.5746 88.1397 72.6848 87.633 72.6526C87.1264 72.6205 86.6387 72.4474 86.2252 72.1529C85.8117 71.8583 85.4894 71.454 85.2935 70.9857C85.0976 70.5173 85.0365 70.0035 85.1171 69.5023Z" fill="white"/>
<path d="M83.6641 69.2662L83.8458 67.1783L83.9362 66.1435C83.9683 65.6218 84.0975 65.1106 84.3174 64.6365C84.5324 64.1414 84.8481 63.6962 85.2439 63.3292C85.5562 63.0307 85.8968 62.7632 86.2607 62.5303C86.8417 62.1127 87.4227 61.6952 88.0763 61.3139C90.5759 59.5679 93.4364 58.4075 96.446 57.9187C99.5556 57.5466 102.707 58.0761 105.524 59.4439C106.869 60.0651 108.163 60.7936 109.391 61.6225L110.281 62.2399L110.771 62.603C111.005 62.7783 111.218 62.9793 111.407 63.2022C111.793 63.6383 112.089 64.1472 112.276 64.6991C112.463 65.2509 112.537 65.8345 112.496 66.4157L112.26 68.5037L112.151 69.5568V70.1196C112.139 70.3854 112.09 70.6482 112.005 70.9003C111.709 71.9093 111.056 72.7757 110.167 73.3372C109.278 73.8987 108.215 74.1168 107.176 73.9505C106.716 73.854 106.266 73.7141 105.833 73.5329L104.888 73.2061C104.253 73.0245 103.617 72.843 103.073 72.6978C101.802 72.4436 100.585 72.2983 99.4416 72.1712C97.0002 71.9833 94.5446 72.2106 92.1791 72.843C91.5642 73.012 90.9582 73.2119 90.3635 73.4421L89.8733 73.6237C89.6215 73.7238 89.3604 73.7968 89.0931 73.8416C88.4374 73.9721 87.7599 73.9492 87.1144 73.7749C86.4689 73.6005 85.8724 73.2794 85.3715 72.8365C84.8706 72.3936 84.4791 71.8409 84.227 71.2216C83.9749 70.6023 83.8693 69.9331 83.9185 69.2662H83.6641ZM86.5506 69.5568C86.5192 69.7206 86.5235 69.8892 86.563 70.0513C86.6025 70.2133 86.6769 70.3648 86.7802 70.4957C86.8835 70.6266 87.0139 70.7338 87.1623 70.8099C87.3107 70.886 87.4735 70.9291 87.6401 70.9366C87.7971 70.9304 87.9513 70.8933 88.094 70.8276L88.3121 70.7187L88.766 70.4827L90.727 69.4478C92.1132 68.7864 93.5688 68.2811 95.0666 67.9409C96.625 67.6168 98.2264 67.5554 99.805 67.7593C101.35 67.9823 102.847 68.461 104.235 69.1755C104.925 69.5023 105.578 69.8653 106.214 70.2466C106.849 70.6279 107.576 71.1181 107.739 71.1726C107.906 71.2305 108.083 71.2514 108.259 71.2338C108.435 71.2162 108.604 71.1605 108.756 71.0707C108.908 70.9808 109.039 70.8589 109.139 70.7135C109.239 70.5681 109.307 70.4026 109.337 70.2286C109.363 69.9872 109.363 69.7437 109.337 69.5023V68.4492L109.174 66.3795C109.111 66.1457 108.97 65.9405 108.774 65.7985L108.647 65.7076L108.247 65.4717L107.412 64.9451C106.302 64.2782 105.156 63.6721 103.981 63.1295C101.824 61.966 99.3801 61.4431 96.9362 61.6225C94.4162 61.9446 91.9948 62.8053 89.8369 64.1462C89.2559 64.473 88.6932 64.8362 88.1304 65.1993C87.5675 65.5624 87.3501 65.6895 87.1685 66.0163C87.0834 66.1731 87.0337 66.3466 87.0231 66.5247L86.8963 67.5596L86.5506 69.5568Z" fill="#08104D"/>
<path d="M37.8026 39.7445C35.8417 43.0489 33.6444 46.1899 31.4293 49.2946C29.1624 52.4652 26.7073 55.4967 24.0765 58.3726C21.4471 61.2715 18.6067 63.972 15.5792 66.4521C12.6917 69.0708 9.39895 71.2045 5.82916 72.7703C5.58724 72.8658 5.32163 72.8813 5.07029 72.8144C4.81896 72.7476 4.59535 72.6019 4.43288 72.3988C4.27041 72.1957 4.177 71.9459 4.16692 71.686C4.15685 71.4261 4.23077 71.1698 4.37703 70.9547C6.61022 67.5959 9.82423 65.5079 12.4932 62.9116C15.1621 60.3153 17.849 57.7372 20.409 55.0138C22.969 52.2904 25.2929 49.4218 27.6714 46.4079C30.0498 43.394 32.4101 40.3981 34.9338 37.5839C35.2461 37.3072 35.6437 37.1465 36.0606 37.1288C36.4774 37.1112 36.8882 37.2378 37.2228 37.4871C37.5574 37.7364 37.7961 38.0933 37.8983 38.4978C38.0006 38.9024 37.9599 39.3299 37.784 39.7083L37.8026 39.7445Z" fill="#08104D"/>
<path d="M8.44304 61.7134L4.72141 73.5874L2.70634 70.2104L16.1416 72.2075C16.5461 72.2412 16.9202 72.4342 17.1824 72.7441C17.4446 73.0539 17.5734 73.4553 17.5397 73.8598C17.506 74.2642 17.3132 74.6387 17.0033 74.9009C16.6935 75.163 16.2917 75.2914 15.8872 75.2577L2.30652 75.0398H2.21609C1.91972 75.0375 1.62683 74.9762 1.35439 74.8595C1.08194 74.7428 0.83538 74.5731 0.629212 74.3602C0.423043 74.1473 0.260994 73.8953 0.153148 73.6193C0.045301 73.3432 -0.00657257 73.0484 0.000665421 72.7522C0.00171926 72.3758 0.102197 72.0064 0.291446 71.681L6.44659 60.7874C6.51627 60.6615 6.60986 60.551 6.72319 60.4624C6.83651 60.3738 6.96722 60.3088 7.10616 60.2715C7.24511 60.2343 7.39012 60.2254 7.53258 60.2454C7.67505 60.2654 7.81175 60.3138 7.93507 60.3879C8.16423 60.5116 8.34181 60.7134 8.43507 60.9565C8.52833 61.1996 8.53072 61.4682 8.44304 61.7134Z" fill="#08104D"/>
<path d="M158.903 37.6203C161.517 40.4345 163.896 43.4302 166.256 46.4441C168.498 49.4337 170.891 52.3061 173.427 55.0501C175.969 57.7735 178.602 60.497 181.344 62.948C184.086 65.3991 187.226 67.6323 189.459 70.9911C189.55 71.1223 189.613 71.2704 189.645 71.4266C189.676 71.5828 189.676 71.7439 189.644 71.9C189.611 72.0561 189.548 72.204 189.457 72.3349C189.366 72.4658 189.25 72.5769 189.114 72.6615C188.955 72.7651 188.773 72.8306 188.584 72.8526C188.395 72.8747 188.204 72.8527 188.025 72.7886C184.455 71.2228 181.162 69.0891 178.275 66.4703C175.247 63.9902 172.408 61.2897 169.778 58.3908C167.148 55.5149 164.692 52.4835 162.425 49.3128C160.192 46.2081 158.013 43.0671 156.052 39.7627C155.876 39.3844 155.836 38.9569 155.938 38.5524C156.04 38.1479 156.279 37.7909 156.614 37.5415C156.948 37.2922 157.359 37.1657 157.776 37.1834C158.193 37.201 158.59 37.3618 158.903 37.6385V37.6203Z" fill="#08104D"/>
<path d="M187.389 60.8417L193.563 71.7354C193.709 71.9928 193.802 72.2766 193.838 72.5701C193.874 72.8637 193.851 73.1614 193.771 73.4464C193.692 73.7313 193.558 73.9979 193.376 74.2308C193.194 74.4637 192.967 74.6584 192.709 74.8037C192.385 74.9963 192.015 75.0968 191.638 75.0943H191.529L177.966 75.3122C177.562 75.3459 177.161 75.2175 176.851 74.9553C176.541 74.6932 176.349 74.3186 176.315 73.9141C176.281 73.5096 176.409 73.1084 176.671 72.7985C176.933 72.4887 177.308 72.2957 177.713 72.262L191.148 70.2647L189.115 73.6418L185.483 61.7677C185.438 61.6319 185.421 61.4884 185.433 61.3458C185.444 61.2033 185.484 61.0644 185.55 60.9375C185.616 60.8106 185.706 60.6982 185.817 60.6069C185.927 60.5157 186.055 60.4473 186.192 60.406C186.412 60.3407 186.647 60.3477 186.863 60.4262C187.078 60.5046 187.263 60.6503 187.389 60.8417Z" fill="#08104D"/>
<path d="M140.493 32.2643C140.072 32.2397 139.669 32.0824 139.343 31.8149C139.017 31.5475 138.784 31.1836 138.677 30.7755C136.735 22.8595 128.038 16.5231 127.947 16.4505C127.632 16.2224 127.392 15.9048 127.259 15.539C127.126 15.1732 127.107 14.776 127.202 14.3988C127.288 14.0176 127.489 13.6721 127.778 13.409C128.068 13.146 128.431 12.9781 128.818 12.9282C131.668 12.3554 134.293 10.9763 136.382 8.95511C138.471 6.93388 139.935 4.35541 140.601 1.52614C140.689 1.13818 140.894 0.786251 141.187 0.517052C141.48 0.247853 141.848 0.0740974 142.242 0.0189352C142.636 -0.0362269 143.037 0.0298099 143.393 0.208208C143.748 0.386607 144.041 0.66901 144.232 1.01783L152.639 15.1613C152.792 15.4215 152.883 15.7135 152.904 16.0145C152.926 16.3155 152.878 16.6175 152.763 16.8968C152.649 17.1762 152.472 17.4254 152.246 17.6251C152.019 17.8248 151.75 17.9695 151.458 18.0481C151.458 18.0481 145.794 19.8637 142.508 30.8662C142.381 31.2937 142.112 31.6652 141.746 31.9193C141.379 32.1735 140.938 32.2951 140.493 32.2643ZM133.049 15.6878C135.991 18.29 138.487 21.3566 140.438 24.7658C142.001 20.9259 144.652 17.6257 148.064 15.2703L142.834 6.46464C140.826 10.6441 137.34 13.9302 133.049 15.6878Z" fill="#08104D"/>
</svg>
