<svg width="213" height="180" viewBox="0 0 213 180" fill="none" xmlns="http://www.w3.org/2000/svg">
<path d="M78.6972 140.811L23.0463 151.833C22.2368 151.992 21.3973 151.824 20.7115 151.365C20.0258 150.906 19.5495 150.195 19.3868 149.386V149.229L0.0809544 29.1938C-0.00949186 28.8327 -0.0244824 28.4567 0.0376566 28.0897C0.0997956 27.7226 0.237317 27.3725 0.441587 27.0612C0.645856 26.75 0.912751 26.4845 1.22478 26.2815C1.53682 26.0784 1.88732 25.9422 2.25461 25.8815C2.62191 25.8208 2.99767 25.8369 3.35843 25.9288C3.7192 26.0206 4.05746 26.1862 4.351 26.4152C4.64454 26.6442 4.88711 26.9315 5.06404 27.2591C5.24096 27.5866 5.34809 27.9473 5.37863 28.3184L25.5828 148.196L21.8789 145.592L77.8444 136.321C78.4398 136.214 79.0532 136.347 79.55 136.693C80.0468 137.038 80.3866 137.566 80.4938 138.162C80.6009 138.757 80.4663 139.371 80.1211 139.868C79.7758 140.364 79.2476 140.704 78.6522 140.811H78.6972Z" fill="#08104D"/>
<path d="M3.51499 18.9798L109.026 5.95937C109.842 5.86176 110.664 6.0827 111.321 6.57623C111.977 7.06975 112.417 7.79775 112.55 8.60835L131.475 129.968C131.539 130.374 131.522 130.788 131.426 131.187C131.33 131.586 131.155 131.962 130.913 132.293C130.671 132.625 130.367 132.905 130.016 133.119C129.666 133.332 129.276 133.475 128.871 133.538L95.8035 138.611C95.1338 138.714 94.4509 138.548 93.9038 138.148C93.3567 137.748 92.9905 137.148 92.8855 136.478C92.7923 135.82 92.9542 135.151 93.3382 134.609C93.7222 134.066 94.299 133.691 94.9506 133.56L127.793 127.274L125.189 130.889L106.242 9.52884L109.744 12.2003L4.14363 24.3452C3.46683 24.39 2.79881 24.1735 2.27689 23.7402C1.75497 23.307 1.41918 22.6902 1.33859 22.0167C1.258 21.3432 1.43893 20.6645 1.84391 20.1204C2.24889 19.5762 2.84672 19.2082 3.51499 19.092V18.9798Z" fill="#08104D"/>
<path d="M35.752 18.4635L36.5379 24.2778C36.7616 25.9065 37.6168 27.382 38.9187 28.3857C40.2207 29.3895 41.8648 29.8411 43.4968 29.6432L77.7771 25.4227C78.6595 25.3139 79.5078 25.0179 80.2665 24.5544C81.0251 24.0909 81.6765 23.4707 82.176 22.7352C82.6755 21.9998 83.0113 21.1661 83.1625 20.29C83.3137 19.4139 83.2759 18.5157 83.0518 17.6554L82.2889 12.1554L69.4256 13.7941C69.4256 13.7941 66.8441 1.15522 56.091 3.51237C45.3378 5.86953 46.9765 16.8248 46.9765 16.8248L35.752 18.4635Z" fill="white"/>
<path d="M42.8237 32.8531C40.5473 32.8493 38.3484 32.0259 36.6294 30.5335C34.9104 29.0412 33.7863 26.9799 33.4626 24.7266L32.6767 18.9123C32.5547 18.0818 32.7676 17.2368 33.2686 16.5632C33.7696 15.8895 34.518 15.4425 35.3486 15.3204L43.767 14.1082C43.8347 10.82 45.0391 7.6568 47.1754 5.15623C49.3118 2.65567 52.2481 0.972132 55.4853 0.391829C57.1771 -0.0387493 58.9396 -0.115416 60.6624 0.166571C62.3853 0.448558 64.0313 1.08308 65.4975 2.03057C68.3854 4.06924 70.5662 6.95668 71.7379 10.2918L81.9529 9.0122C82.7798 8.90339 83.6158 9.12531 84.28 9.62975C84.9442 10.1342 85.3829 10.8804 85.5 11.7061L86.2629 17.049C86.5661 18.3389 86.5944 19.6783 86.3452 20.9797C86.0959 22.2811 85.5743 23.5154 84.816 24.602C84.0577 25.6887 83.0797 26.6032 81.9441 27.2861C80.8086 27.969 79.5413 28.405 78.226 28.5654L43.9687 32.7859L42.8237 32.8531ZM39.3895 21.1572L39.771 23.8512C39.8828 24.6485 40.3026 25.3701 40.9406 25.8612C41.5785 26.3523 42.3839 26.5736 43.1833 26.4777L77.4631 22.2572C77.895 22.201 78.3101 22.0536 78.6809 21.8249C79.0516 21.5962 79.3696 21.2914 79.6137 20.9306C79.8578 20.5698 80.0217 20.1613 80.096 19.7321C80.1703 19.3029 80.1531 18.8627 80.0445 18.4409V18.1041L79.708 15.7021L69.9654 16.9368C69.1693 17.0383 68.364 16.8358 67.7107 16.3697C67.0573 15.9036 66.6033 15.2083 66.4402 14.4225C65.843 11.6292 64.3059 9.12516 62.0852 7.32852C61.3156 6.86141 60.4581 6.55679 59.5663 6.43324C58.6745 6.3097 57.767 6.36984 56.8994 6.61013C55.8146 6.80191 54.7792 7.20704 53.8521 7.80192C52.925 8.3968 52.125 9.1696 51.4986 10.0757C50.8723 10.9819 50.4319 12.0033 50.203 13.0808C49.9741 14.1583 49.9608 15.2706 50.1646 16.3531C50.2259 16.7701 50.204 17.1952 50.1 17.6037C49.9959 18.0121 49.8118 18.3958 49.5585 18.7327C49.3105 19.0674 48.9985 19.3492 48.6399 19.5613C48.2813 19.7733 47.8836 19.9113 47.4708 19.9674L39.3895 21.1572Z" fill="#08104D"/>
<path d="M104.199 40.6205L100.338 39.9918L104.131 37.3205L95.623 98.2025L91.3798 128.643L86.6664 159.017L84.0619 155.403L189.977 173.631L186.295 176.258L207.622 50.9022C207.717 50.3068 208.044 49.7736 208.533 49.4199C209.021 49.0663 209.631 48.9212 210.226 49.0164C210.822 49.1117 211.355 49.4396 211.708 49.928C212.062 50.4164 212.207 51.0252 212.112 51.6206L192.648 177.335C192.516 178.162 192.061 178.903 191.383 179.395C190.706 179.888 189.861 180.091 189.033 179.962L82.8945 161.666C82.0759 161.523 81.3464 161.064 80.8634 160.388C80.3803 159.711 80.1828 158.872 80.3131 158.052L85.1394 127.611L89.3826 97.1922L97.8679 36.3328C97.923 35.9344 98.0565 35.5507 98.2603 35.204C98.4641 34.8573 98.7338 34.5541 99.055 34.3121C99.3763 34.0702 99.743 33.8941 100.133 33.7939C100.522 33.6938 100.927 33.6716 101.325 33.7286H101.64L105.433 34.6491C106.222 34.8098 106.915 35.2773 107.359 35.9488C107.804 36.6203 107.963 37.4408 107.802 38.2296C107.642 39.0185 107.174 39.7113 106.502 40.1554C105.831 40.5996 105.01 40.7588 104.221 40.598L104.199 40.6205Z" fill="#08104D"/>
<path d="M202.976 51.2839C189.507 50.0118 176.037 48.6573 162.568 47.2206L142.364 44.9757L132.283 43.8757L127.232 43.3145C125.508 43.3348 123.805 42.9341 122.271 42.1471C121.824 41.8326 121.469 41.4029 121.246 40.9035C121.023 40.4041 120.94 39.8537 121.004 39.3105C121.068 38.7674 121.279 38.2517 121.612 37.8184C121.946 37.385 122.391 37.0502 122.899 36.8491C124.574 36.4451 126.321 36.4451 127.995 36.8491L133.046 37.4776L143.103 38.7572L163.308 41.3389C176.777 43.09 190.188 44.9083 203.537 46.7941C204.133 46.8625 204.676 47.1647 205.049 47.6341C205.422 48.1035 205.592 48.7017 205.524 49.2971C205.455 49.8925 205.153 50.4364 204.684 50.809C204.214 51.1816 203.615 51.3523 203.02 51.2839H202.976Z" fill="#08104D"/>
<path d="M176.103 46.5249L175.317 52.3392C175.088 53.9653 174.232 55.4373 172.931 56.44C171.631 57.4427 169.989 57.8966 168.358 57.7045L134.078 53.529C133.195 53.4173 132.346 53.1185 131.588 52.6527C130.829 52.1868 130.179 51.5646 129.679 50.8274C129.18 50.0903 128.844 49.2551 128.693 48.3777C128.542 47.5003 128.58 46.6009 128.804 45.7393L129.588 40.2617L142.452 41.9004C142.452 41.9004 145.011 29.2615 155.764 31.6187C166.517 33.9758 164.879 44.931 164.879 44.931L176.103 46.5249Z" fill="white"/>
<path d="M169.123 60.914H167.977L133.697 56.6936C132.38 56.5341 131.111 56.0977 129.975 55.4132C128.838 54.7286 127.86 53.8112 127.103 52.7214C126.346 51.6316 125.828 50.3941 125.584 49.09C125.339 47.7859 125.373 46.4449 125.683 45.1549L126.446 39.8344C126.502 39.4243 126.637 39.029 126.845 38.6714C127.054 38.3138 127.331 38.001 127.661 37.7507C127.99 37.5004 128.365 37.3176 128.766 37.2129C129.166 37.1082 129.584 37.0836 129.993 37.1405L140.185 38.4201C141.365 35.0892 143.544 32.204 146.426 30.1589C147.892 29.2114 149.538 28.5767 151.261 28.2947C152.984 28.0128 154.746 28.0894 156.438 28.52C159.672 29.0995 162.605 30.7798 164.741 33.2758C166.877 35.7717 168.084 38.9298 168.157 42.214L176.575 43.4487C177.403 43.5712 178.15 44.014 178.654 44.6817C179.158 45.3495 179.379 46.1886 179.27 47.018L178.461 52.8549C178.127 55.094 177.001 57.1391 175.287 58.6182C173.573 60.0972 171.386 60.9118 169.123 60.914ZM132.283 43.763L131.947 46.1426V46.5018C131.816 46.9238 131.778 47.3692 131.836 47.8071C131.894 48.2451 132.047 48.6652 132.283 49.0385C132.534 49.4135 132.866 49.7273 133.255 49.9565C133.643 50.1858 134.079 50.3248 134.528 50.3631L168.785 54.5834C169.588 54.6856 170.399 54.4674 171.042 53.9757C171.685 53.484 172.109 52.7586 172.22 51.9569L172.58 49.2629L164.475 48.0732C164.062 48.0172 163.665 47.879 163.306 47.667C162.948 47.4549 162.636 47.1733 162.388 46.8385C161.881 46.1559 161.663 45.301 161.782 44.4589C161.992 43.3759 161.983 42.2617 161.757 41.1819C161.53 40.1021 161.09 39.0783 160.463 38.1708C159.836 37.2632 159.034 36.4901 158.104 35.8968C157.174 35.3035 156.134 34.9021 155.047 34.716C154.183 34.4749 153.278 34.4143 152.39 34.5379C151.502 34.6614 150.648 34.9666 149.883 35.4344C147.651 37.2344 146.106 39.7468 145.506 42.5507C145.343 43.3305 144.891 44.0203 144.242 44.4822C143.593 44.9441 142.794 45.1441 142.004 45.0425L132.283 43.763Z" fill="#08104D"/>
<path d="M48.5481 75.6188C46.3281 75.6188 44.158 74.9605 42.3121 73.7271C40.4662 72.4938 39.0275 70.7407 38.178 68.6897C37.3284 66.6386 37.1064 64.3818 37.5395 62.2044C37.9726 60.0271 39.0416 58.027 40.6114 56.4572C42.1812 54.8874 44.1812 53.8185 46.3585 53.3854C48.5359 52.9523 50.7923 53.1745 52.8433 54.024C54.8943 54.8736 56.6479 56.3123 57.8812 58.1581C59.1146 60.004 59.7732 62.1743 59.7732 64.3943C59.7732 67.3712 58.5897 70.2262 56.4847 72.3312C54.3797 74.4362 51.525 75.6188 48.5481 75.6188ZM48.5481 61.0044C47.8624 61 47.1908 61.1996 46.6189 61.5777C46.0469 61.9559 45.6008 62.4956 45.3364 63.1282C45.0719 63.7608 45.0014 64.4578 45.1341 65.1305C45.2668 65.8032 45.5964 66.4212 46.0812 66.9061C46.566 67.3909 47.1842 67.7206 47.857 67.8533C48.5297 67.986 49.2264 67.9156 49.8591 67.6512C50.4917 67.3868 51.0314 66.9401 51.4096 66.3682C51.7877 65.7962 51.9873 65.1247 51.9829 64.4391C51.9829 63.5281 51.6213 62.6546 50.9771 62.0104C50.333 61.3663 49.459 61.0044 48.5481 61.0044Z" fill="#5A50FF"/>
<path d="M159.738 101.592C157.518 101.592 155.348 100.934 153.502 99.7003C151.656 98.4669 150.218 96.7139 149.368 94.6629C148.519 92.6119 148.296 90.3551 148.729 88.1777C149.162 86.0004 150.231 84.0002 151.801 82.4305C153.37 80.8607 155.37 79.7918 157.548 79.3587C159.725 78.9255 161.983 79.1477 164.034 79.9973C166.085 80.8469 167.837 82.2855 169.07 84.1314C170.304 85.9773 170.962 88.1474 170.962 90.3674C170.962 93.3443 169.78 96.1994 167.675 98.3045C165.57 100.409 162.715 101.592 159.738 101.592ZM159.738 86.9777C159.059 86.9777 158.394 87.1791 157.829 87.5565C157.265 87.9339 156.824 88.4703 156.565 89.0979C156.305 89.7255 156.237 90.4162 156.369 91.0825C156.502 91.7488 156.828 92.3608 157.309 92.8411C157.789 93.3215 158.402 93.6485 159.068 93.7811C159.734 93.9136 160.425 93.8455 161.052 93.5855C161.68 93.3256 162.216 92.8854 162.593 92.3206C162.971 91.7558 163.172 91.0917 163.172 90.4123C163.166 89.5032 162.803 88.633 162.16 87.9901C161.517 87.3473 160.647 86.9836 159.738 86.9777Z" fill="#5A50FF"/>
<path d="M60.6254 63.3839C60.7748 64.2453 60.607 65.1316 60.153 65.8787C59.6989 66.6258 58.9892 67.1831 58.1558 67.4472C57.2964 67.6467 56.3933 67.5056 55.6357 67.0535C54.8782 66.6015 54.3249 65.8736 54.0924 65.0226C53.9681 64.5935 53.9333 64.1435 53.9893 63.7003C54.0453 63.2571 54.1909 62.8301 54.4179 62.4453C54.645 62.0606 54.9481 61.7263 55.3091 61.463C55.67 61.1998 56.0813 61.0131 56.517 60.9144C57.3925 60.6706 58.3292 60.7836 59.1215 61.2287C59.8853 61.7229 60.425 62.4965 60.6254 63.3839Z" fill="#5A50FF"/>
<path d="M75.218 61.4084C75.2643 62.2826 74.977 63.1419 74.4145 63.8127C73.852 64.4835 73.0561 64.9159 72.1872 65.0227C71.745 65.0654 71.2989 65.0206 70.874 64.8909C70.4491 64.7611 70.0539 64.5491 69.711 64.2666C69.3681 63.9842 69.0844 63.6369 68.8757 63.2447C68.667 62.8526 68.537 62.4231 68.4942 61.9809C68.4515 61.5387 68.4961 61.0923 68.6258 60.6674C68.7555 60.2425 68.9681 59.8473 69.2506 59.5044C69.533 59.1615 69.88 58.8776 70.2722 58.6689C70.6644 58.4602 71.0938 58.3307 71.5361 58.288C71.985 58.2384 72.4392 58.281 72.8712 58.4131C73.3031 58.5451 73.7038 58.7638 74.0484 59.0558C74.393 59.3479 74.675 59.7072 74.876 60.1117C75.0771 60.5162 75.1933 60.9574 75.218 61.4084Z" fill="#5A50FF"/>
<path d="M89.945 61.476C89.8819 62.3492 89.4856 63.1649 88.8379 63.754C88.1902 64.3432 87.3401 64.6609 86.4647 64.6414C85.5716 64.6056 84.7296 64.2166 84.1234 63.5599C83.5171 62.9031 83.1965 62.0324 83.2322 61.1393C83.2679 60.2462 83.6573 59.4039 84.3141 58.7977C84.9708 58.1914 85.8413 57.8709 86.7344 57.9066C87.1838 57.9173 87.626 58.0197 88.0344 58.2075C88.4428 58.3954 88.8091 58.6647 89.1097 58.9989C89.4103 59.3332 89.6391 59.7253 89.7828 60.1513C89.9264 60.5772 89.9818 61.0279 89.945 61.476Z" fill="#5A50FF"/>
<path d="M104.559 63.4741C104.43 64.1236 104.113 64.7208 103.647 65.191C103.181 65.6613 102.586 65.9837 101.938 66.1178C101.289 66.252 100.617 66.1921 100.002 65.9455C99.3876 65.6989 98.8586 65.2765 98.4828 64.7313C98.1071 64.1862 97.9005 63.5423 97.8887 62.8802C97.8769 62.2182 98.0609 61.5674 98.4171 61.0092C98.7732 60.451 99.2861 60.0101 99.8914 59.7418C100.497 59.4735 101.168 59.3895 101.821 59.5005C102.264 59.5759 102.688 59.7395 103.067 59.9815C103.446 60.2234 103.773 60.5388 104.028 60.9092C104.284 61.2796 104.462 61.6975 104.553 62.138C104.644 62.5785 104.646 63.0328 104.559 63.4741Z" fill="#5A50FF"/>
<path d="M118.814 67.4697C118.592 68.0932 118.19 68.6374 117.661 69.0344C117.131 69.4314 116.496 69.6634 115.835 69.7016C115.175 69.7397 114.518 69.5823 113.946 69.2488C113.374 68.9154 112.913 68.4209 112.62 67.827C112.328 67.2331 112.217 66.5662 112.301 65.9097C112.386 65.2532 112.663 64.6362 113.096 64.1357C113.529 63.6353 114.101 63.2737 114.738 63.096C115.376 62.9184 116.051 62.9327 116.681 63.137C117.111 63.2733 117.509 63.4951 117.851 63.7892C118.193 64.0833 118.472 64.4436 118.671 64.8484C118.87 65.2531 118.987 65.694 119.011 66.1444C119.035 66.5949 118.968 67.0457 118.814 67.4697Z" fill="#5A50FF"/>
<path d="M132.126 73.5983C131.695 74.3575 130.992 74.9252 130.159 75.1876C129.326 75.4499 128.425 75.3874 127.637 75.0126C126.881 74.5773 126.315 73.8759 126.049 73.0455C125.784 72.2152 125.837 71.3157 126.2 70.5228C126.39 70.1089 126.663 69.738 127.001 69.4325C127.339 69.127 127.735 68.8934 128.166 68.7456C128.597 68.5978 129.053 68.539 129.508 68.5727C129.962 68.6064 130.405 68.732 130.809 68.9418C131.213 69.1516 131.571 69.4413 131.86 69.7933C132.149 70.1453 132.364 70.5523 132.491 70.9897C132.619 71.4271 132.656 71.8859 132.601 72.3381C132.546 72.7903 132.4 73.2267 132.171 73.6207L132.126 73.5983Z" fill="#5A50FF"/>
<path d="M143.889 82.4437C143.293 83.0685 142.482 83.4438 141.619 83.4938C140.757 83.5438 139.908 83.2647 139.243 82.713C138.907 82.4256 138.63 82.0748 138.429 81.6806C138.229 81.2864 138.109 80.8567 138.074 80.4158C138.04 79.9749 138.092 79.5315 138.229 79.111C138.366 78.6905 138.585 78.3012 138.872 77.9651C139.16 77.629 139.511 77.3528 139.905 77.1523C140.299 76.9518 140.729 76.8308 141.17 76.7965C141.611 76.7621 142.054 76.8149 142.474 76.9518C142.895 77.0888 143.284 77.3071 143.62 77.5946C143.969 77.8865 144.256 78.2473 144.46 78.6543C144.665 79.0613 144.783 79.5059 144.808 79.9606C144.833 80.4153 144.764 80.8705 144.606 81.2976C144.448 81.7248 144.204 82.1148 143.889 82.4437Z" fill="#5A50FF"/>
<path d="M47.3355 108.057C46.474 108.058 45.6421 107.744 44.9968 107.173C44.3516 106.602 43.9381 105.815 43.8338 104.959L41.8131 89.4247C41.7462 88.9661 41.7734 88.4988 41.8931 88.051C42.0127 87.6033 42.2224 87.1847 42.5091 86.8206C43.0543 86.0934 43.8579 85.6031 44.754 85.4511L59.2336 83.5655C59.6966 83.5057 60.1664 83.5378 60.6169 83.6602C61.0674 83.7825 61.4897 83.9925 61.8589 84.2782C62.228 84.564 62.5373 84.9198 62.7687 85.3252C63 85.7306 63.1489 86.1778 63.2071 86.641L65.2273 102.153C65.2934 102.615 65.2669 103.086 65.1484 103.538C65.0299 103.989 64.8223 104.413 64.5378 104.783C64.2534 105.153 63.898 105.463 63.4921 105.694C63.0863 105.924 62.6382 106.072 62.1746 106.127L47.695 108.013L47.3355 108.057ZM49.2888 92.0288L50.3888 100.537L57.8645 99.5492L56.764 91.0634L49.2888 92.0288Z" fill="#5A50FF"/>
<path d="M82.6483 96.1821C82.713 96.8401 82.5826 97.5025 82.2734 98.0869C81.9641 98.6713 81.4891 99.1518 80.9087 99.4683C80.3282 99.7849 79.6678 99.9235 79.009 99.867C78.3503 99.8105 77.7229 99.5614 77.2048 99.1506C76.6867 98.7398 76.3007 98.1856 76.0955 97.5571C75.8903 96.9285 75.8746 96.2535 76.0505 95.6162C76.2264 94.9788 76.5868 94.4074 77.0853 93.9731C77.5838 93.5387 78.1991 93.2608 78.8545 93.1738C79.3033 93.1079 79.7603 93.1346 80.1984 93.2522C80.6365 93.3698 81.0465 93.5759 81.4019 93.8577C81.7574 94.1395 82.0513 94.491 82.2657 94.8908C82.4801 95.2906 82.6102 95.7301 82.6483 96.1821Z" fill="#5A50FF"/>
<path d="M97.3755 96.676C97.3327 97.1182 97.2027 97.5477 96.994 97.9399C96.7853 98.3321 96.5017 98.6794 96.1587 98.9619C95.8158 99.2444 95.4206 99.4564 94.9957 99.5862C94.5708 99.7159 94.1247 99.7607 93.6825 99.718C93.2403 99.6752 92.8109 99.5458 92.4187 99.3371C92.0265 99.1283 91.6784 98.8444 91.396 98.5015C91.1135 98.1586 90.902 97.7634 90.7723 97.3385C90.6425 96.9136 90.598 96.4673 90.6407 96.025C90.7271 95.132 91.1638 94.3098 91.8564 93.7393C92.5489 93.1688 93.4406 92.8969 94.3337 92.9832C95.2267 93.0696 96.0487 93.5071 96.6191 94.1997C97.1896 94.8922 97.4618 95.7829 97.3755 96.676Z" fill="#5A50FF"/>
<path d="M111.629 100.425C111.309 101.221 110.698 101.865 109.918 102.225C109.139 102.585 108.252 102.634 107.438 102.362C106.624 102.089 105.944 101.517 105.538 100.76C105.132 100.004 105.031 99.121 105.254 98.2922C105.374 97.8489 105.583 97.4348 105.868 97.0752C106.153 96.7156 106.509 96.418 106.914 96.201C107.318 95.984 107.763 95.852 108.22 95.8131C108.678 95.7742 109.139 95.8293 109.574 95.9749C110.01 96.1206 110.411 96.3537 110.752 96.66C111.094 96.9663 111.37 97.3393 111.563 97.756C111.755 98.1728 111.86 98.6245 111.872 99.0835C111.883 99.5424 111.801 99.9989 111.629 100.425Z" fill="#5A50FF"/>
<path d="M124.582 107.407C124.091 108.133 123.336 108.639 122.478 108.818C121.619 108.996 120.725 108.832 119.985 108.361C119.245 107.891 118.719 107.15 118.516 106.297C118.314 105.444 118.453 104.545 118.903 103.793C119.134 103.406 119.44 103.07 119.803 102.804C120.166 102.538 120.579 102.348 121.017 102.244C121.455 102.14 121.909 102.125 122.353 102.2C122.797 102.275 123.222 102.438 123.601 102.68C123.981 102.921 124.308 103.237 124.564 103.607C124.82 103.977 124.998 104.395 125.09 104.836C125.181 105.277 125.184 105.731 125.097 106.173C125.009 106.614 124.835 107.034 124.582 107.407Z" fill="#5A50FF"/>
<path d="M135.201 117.621C134.534 118.216 133.659 118.522 132.766 118.472C131.874 118.421 131.038 118.018 130.443 117.351C129.847 116.684 129.54 115.808 129.591 114.916C129.641 114.023 130.044 113.188 130.711 112.592C131.041 112.297 131.427 112.07 131.845 111.924C132.262 111.778 132.705 111.716 133.147 111.741C133.589 111.766 134.022 111.878 134.42 112.07C134.819 112.262 135.176 112.531 135.471 112.862C135.765 113.192 135.992 113.577 136.138 113.995C136.284 114.413 136.346 114.855 136.321 115.297C136.296 115.739 136.185 116.171 135.992 116.57C135.8 116.969 135.531 117.326 135.201 117.621Z" fill="#5A50FF"/>
<path d="M143.306 136.95C142.568 136.949 141.851 136.697 141.274 136.235C140.698 135.773 140.296 135.129 140.134 134.408C139.972 133.687 140.059 132.933 140.383 132.269C140.706 131.605 141.247 131.071 141.914 130.754L163.286 120.674C163.676 120.461 164.105 120.329 164.547 120.288C164.99 120.246 165.437 120.296 165.86 120.434C166.282 120.572 166.672 120.795 167.005 121.089C167.338 121.384 167.607 121.743 167.796 122.145C167.985 122.548 168.09 122.985 168.103 123.429C168.117 123.874 168.039 124.316 167.875 124.729C167.711 125.142 167.465 125.518 167.151 125.832C166.836 126.146 166.46 126.392 166.047 126.556L144.697 136.636C144.264 136.848 143.788 136.956 143.306 136.95Z" fill="#5A50FF"/>
<path d="M159.042 142.584C158.422 142.586 157.816 142.411 157.291 142.081C156.767 141.752 156.346 141.28 156.079 140.721L145.999 119.35C145.694 118.579 145.695 117.722 146.001 116.952C146.306 116.182 146.893 115.558 147.643 115.206C148.393 114.854 149.248 114.801 150.036 115.058C150.823 115.315 151.483 115.862 151.881 116.588L161.983 137.937C162.164 138.325 162.268 138.745 162.287 139.172C162.307 139.6 162.242 140.027 162.096 140.43C161.95 140.832 161.726 141.202 161.437 141.518C161.148 141.833 160.799 142.089 160.411 142.27C159.985 142.48 159.516 142.587 159.042 142.584Z" fill="#5A50FF"/>
</svg>
