<svg
      xmlns="http://www.w3.org/2000/svg"
      viewBox="0 0 396.74 63.6"
    >
      <g id="Layer_2" data-name="Layer 2">
        <g id="Layer_1-2" data-name="Layer 1">
          <path
            fill="#0d173f"
            d="M22.12,16.45,48.21,61.64a3.31,3.31,0,0,0,2.88,1.66H64.32a3.34,3.34,0,0,0,2.89-1.66l6.61-11.46a3.31,3.31,0,0,0,0-3.33L47.74,1.66A3.34,3.34,0,0,0,44.86,0H31.62a3.31,3.31,0,0,0-2.88,1.66L22.12,13.13A3.29,3.29,0,0,0,22.12,16.45Z"
          />
          <path
            fill="#faa519"
            d="M18.34,63.3h-15a3.33,3.33,0,0,1-2.88-5L8,45.31l7.5-13a3.33,3.33,0,0,1,5.77,0l7.5,13,7.51,13a3.33,3.33,0,0,1-2.89,5Z"
          />
          <path
            fill="#0d173f"
            d="M91.56,33.13c0-10.48,5.94-17.36,15.76-17.36,4.08,0,7.42,1.53,9.29,3.87V16.3H126V50h-9.35V46.43c-1.67,2.47-5.21,4.07-9.15,4.07C97.5,50.5,91.56,43.62,91.56,33.13Zm25.65,0c0-5.67-3.27-9.42-8.28-9.42s-8.22,3.75-8.22,9.42,3.27,9.36,8.22,9.36S117.21,38.75,117.21,33.13Z"
          />
          <path
            fill="#0d173f"
            d="M131.4,16.3h9.29V20c2-2.6,5.34-4.2,9.68-4.2,9.42,0,15.44,6.88,15.44,17.36S159.26,50.5,149.57,50.5c-3.81,0-7.08-1.27-8.88-3.54V63.6H131.4Zm25.25,16.83c0-5.67-3.34-9.42-8.21-9.42s-8.29,3.75-8.29,9.42,3.28,9.36,8.29,9.36S156.65,38.75,156.65,33.13Z"
          />
          <path
            fill="#0d173f"
            d="M169.72,1.67H179V21c1.93-3.28,5.61-5.21,10.29-5.21,7.54,0,12.49,5.47,12.49,13.22V50H192.5V31.06c0-4.07-2.67-7-6.54-7-4.08,0-7,3.14-7,7.48V50h-9.29Z"
          />
          <path
            fill="#0d173f"
            d="M238.85,38.55c-1.34,7.28-7.75,12-16,12-11.42,0-17.3-9-17.3-17.43s5.21-17.3,16.64-17.3c11.89,0,16.63,8.75,16.63,16.43,0,1.27-.07,2.27-.13,3H214.46c.67,4.74,3.68,7.68,8.35,7.68,3.74,0,6.22-1.47,6.95-4.34ZM214.6,29.33h14.89a7,7,0,0,0-7.34-6.75C217.94,22.58,215.4,24.65,214.6,29.33Z"
          />
          <path
            fill="#0d173f"
            d="M262.19,50,255,39.61,247.69,50h-9.95L249.9,32.4,238.61,16.3h10.15l6.15,8.88,6.14-8.88h10.22L260,32.47,272.08,50Z"
          />
          <path
            fill="#828ca0"
            d="M292.44,20.1h-7.21V16.23h7.21V12.69c0-6.21,3.81-10.09,9.89-10.09h5V6.48h-5.08c-3.41,0-5.61,2.34-5.61,6.21v3.54h10.69V20.1H296.65V49.89h-4.21Z"
          />
          <path
            fill="#828ca0"
            d="M315.72,2.6V9.42h-5.08V2.6Zm-4.61,13.63h4.21V49.89h-4.21Z"
          />
          <path
            fill="#828ca0"
            d="M351.23,39.27C350.16,46,344.35,50.42,336,50.42c-9.55,0-16.49-7.61-16.49-17.63,0-10.22,6.41-17.1,15.89-17.1,9.22,0,15.43,6.28,15.43,15.57,0,.6-.07,1.73-.13,2.2H323.78c.27,7.55,5.48,13.09,12.22,13.09,5.95,0,9.69-2.67,10.82-7.28Zm-27.18-9.68h22.37c-.47-6.22-4.61-10-11-10C329.26,19.57,325.12,23.31,324.05,29.59Z"
          />
          <path fill="#828ca0" d="M355.75,2.6H360V49.89h-4.21Z" />
          <path
            fill="#828ca0"
            d="M364.48,33.06c0-9.62,5.68-17.37,16.36-17.37a13.31,13.31,0,0,1,11.69,6.62V2.6h4.21V49.89h-4.21V43.81c-2.07,3.94-6.74,6.61-11.69,6.61C370.16,50.42,364.48,42.68,364.48,33.06Zm28.52,0c0-8.15-4.74-13.49-12-13.49s-12,5.34-12,13.49,4.74,13.49,12,13.49S393,41.21,393,33.06Z"
          />
        </g>
      </g>
    </svg>