<svg
      xmlns="http://www.w3.org/2000/svg"
      viewBox="0 0 246.2 197.9"
    >
      <g>
        <g id="Layer_2_1_">
          <g id="Layer_1-2">
            <g>
              <circle fill="#FFD0D6" cx="185.3" cy="63.2" r="40.7" />
            </g>
            <path
              fill="#B2F4DF"
              d="M97.2,131v54.3c0,4.7-3.8,8.5-8.5,8.5H34.6c-4.7,0-8.5-3.8-8.5-8.5V131c0-4.7,3.8-8.5,8.5-8.5h54.1
				C93.4,122.5,97.2,126.3,97.2,131z"
            />
            <path
              fill="#FDE4BA"
              d="M75.6,103.2H42.9c-4,0-7.3-3.2-7.3-7.2c0-1.3,0.3-2.5,1-3.6L52.9,64l16.4-28.3c2-3.5,6.4-4.7,9.9-2.7
				c1.1,0.6,2,1.6,2.7,2.7L98.2,64l16.3,28.3c2,3.5,0.8,7.9-2.6,9.9c-1.1,0.6-2.4,1-3.6,1L75.6,103.2z"
            />
            <path
              fill="#CDCAFF"
              d="M174.7,118.8l-31.2,22.7c-2.7,2-3.9,5.5-2.8,8.7l11.9,36.7c1,3.2,4,5.4,7.4,5.4h38.6c3.4,0,6.4-2.2,7.4-5.4
				l12-36.7c1-3.2-0.1-6.8-2.8-8.7l-31.2-22.7C181.2,116.8,177.4,116.8,174.7,118.8z"
            />
            <path
              fill="#0D173F"
              d="M206.3,182.6H38.5c-6.6,0-12-5.4-12-12V47c0-6.6,5.4-12,12-12h167.8c6.6,0,12,5.4,12,12v123.6
				C218.3,177.2,212.9,182.6,206.3,182.6z M38.5,38.7c-4.6,0-8.3,3.7-8.3,8.3c0,0,0,0,0,0v123.6c0,4.6,3.7,8.3,8.3,8.3h167.8
				c4.6,0,8.3-3.7,8.3-8.3V47c0-4.6-3.7-8.3-8.3-8.3L38.5,38.7z"
            />
            <path
              fill="#FFFFFF"
              d="M50.6,68.8v12.3h48.5V64.5H58.6C58.6,64.5,48.8,68.8,50.6,68.8z"
            />
            <path
              fill="#0D173F"
              d="M99.1,82.6H50.6c-0.8,0-1.5-0.7-1.5-1.5V69.6c-0.1-0.2-0.2-0.3-0.2-0.5c-0.2-1.2-0.4-1.8,9.1-5.9
				c0.2-0.1,0.4-0.1,0.6-0.1h40.5c0.8,0,1.5,0.7,1.5,1.5v16.6C100.6,81.9,99.9,82.6,99.1,82.6z M52.1,79.6h45.4V66.1H58.9
				c-2.6,1.1-5.5,2.5-6.8,3.2V79.6z"
            />
            <rect x="85.8" y="91.3" fill="#FFFFFF" width="48.5" height="16.6" />
            <path
              fill="#0D173F"
              d="M134.2,109.4H85.8c-0.8,0-1.5-0.7-1.5-1.5V91.3c0-0.8,0.7-1.5,1.5-1.5c0,0,0,0,0,0h48.5
				c0.8,0,1.5,0.7,1.5,1.5c0,0,0,0,0,0v16.6C135.8,108.7,135.1,109.4,134.2,109.4z M87.3,106.3h45.4V92.8H87.3V106.3z"
            />
            <path
              fill="#FFFFFF"
              d="M159.3,48.8h35.9c3.7,0,6.8,3,6.8,6.8v44c0,3.7-3,6.8-6.8,6.8h-35.9c-3.7,0-6.8-3-6.8-6.8v-44
				C152.6,51.9,155.6,48.8,159.3,48.8z"
            />
            <path
              fill="#0D173F"
              d="M195.3,107.9h-35.9c-4.6,0-8.3-3.7-8.3-8.3v-44c0-4.6,3.7-8.3,8.3-8.3h35.9c4.6,0,8.3,3.7,8.3,8.3v44
				C203.6,104.2,199.9,107.9,195.3,107.9z M159.3,50.4c-2.9,0-5.2,2.3-5.2,5.2v44c0,2.9,2.3,5.2,5.2,5.2h35.9c2.9,0,5.2-2.3,5.2-5.2
				v-44c0-2.9-2.3-5.2-5.2-5.2H159.3z"
            />
            <polyline fill="#FFFFFF" points="156.5,56.7 159,59.2 164.8,53.4 			" />
            <path
              fill="#0D173F"
              d="M159,60.7c-0.4,0-0.8-0.2-1.1-0.5l-2.5-2.5c-0.6-0.6-0.6-1.6,0-2.2c0,0,0,0,0,0c0.6-0.6,1.6-0.6,2.2,0
				L159,57l4.7-4.7c0.6-0.6,1.6-0.6,2.2,0s0.6,1.6,0,2.2l-5.8,5.8C159.8,60.6,159.4,60.7,159,60.7z"
            />
            <line fill="none" x1="168.8" y1="48" x2="168.8" y2="106.1" />
            <path
              fill="#0D173F"
              d="M168.8,107.7c-0.8,0-1.5-0.7-1.5-1.5V48c0.1-0.8,0.8-1.5,1.7-1.4c0.8,0.1,1.4,0.7,1.4,1.4v58.1
				C170.4,107,169.7,107.7,168.8,107.7z"
            />
            <line fill="none" x1="153.4" y1="63.8" x2="200.9" y2="63.8" />
            <path
              fill="#0D173F"
              d="M200.9,65.4h-47.6c-0.8-0.1-1.5-0.8-1.4-1.7c0.1-0.8,0.7-1.4,1.4-1.4h47.6c0.8-0.1,1.6,0.6,1.7,1.4
				c0.1,0.8-0.6,1.6-1.4,1.7C201.1,65.4,201,65.4,200.9,65.4L200.9,65.4z"
            />
            <polyline fill="#FFFFFF" points="156.5,71.6 159,74.1 164.8,68.3 			" />
            <path
              fill="#0D173F"
              d="M159,75.6c-0.4,0-0.8-0.2-1.1-0.4l-2.5-2.5c-0.6-0.6-0.6-1.6,0-2.2s1.6-0.6,2.2,0l1.4,1.4l4.7-4.7
				c0.6-0.6,1.6-0.6,2.2,0s0.6,1.6,0,2.2l0,0l-5.8,5.8C159.8,75.5,159.4,75.6,159,75.6z"
            />
            <line fill="none" x1="153.4" y1="78.8" x2="200.9" y2="78.8" />
            <path
              fill="#0D173F"
              d="M200.9,80.3h-47.6c-0.8-0.1-1.5-0.8-1.4-1.7c0.1-0.8,0.7-1.4,1.4-1.4h47.6c0.8-0.1,1.6,0.6,1.7,1.4
				s-0.6,1.6-1.4,1.7C201.1,80.3,201,80.3,200.9,80.3L200.9,80.3z"
            />
            <polyline fill="#FFFFFF" points="156.5,85.9 159,88.4 164.8,82.6 			" />
            <path
              fill="#0D173F"
              d="M159,89.9c-0.4,0-0.8-0.2-1.1-0.4l-2.5-2.5c-0.6-0.6-0.6-1.6,0-2.2s1.6-0.6,2.2,0l1.4,1.4l4.7-4.7
				c0.6-0.6,1.6-0.6,2.2,0s0.6,1.6,0,2.2l-5.8,5.8C159.8,89.8,159.4,89.9,159,89.9z"
            />
            <line fill="none" x1="153.4" y1="92.7" x2="200.9" y2="92.7" />
            <path
              fill="#0D173F"
              d="M200.9,94.3h-47.6c-0.8-0.1-1.5-0.8-1.4-1.7c0.1-0.8,0.7-1.4,1.4-1.4h47.6c0.8-0.1,1.6,0.6,1.7,1.4
				s-0.6,1.6-1.4,1.7C201.1,94.3,201,94.3,200.9,94.3L200.9,94.3z"
            />
            <polyline
              fill="#FFFFFF"
              points="156.5,99.6 159,102.1 164.8,96.3 			"
            />
            <path
              fill="#0D173F"
              d="M159,103.6c-0.4,0-0.8-0.2-1.1-0.4l-2.5-2.5c-0.6-0.6-0.6-1.6,0-2.2s1.6-0.6,2.2,0l1.4,1.4l4.7-4.7
				c0.6-0.6,1.6-0.6,2.2,0s0.6,1.6,0,2.2l-5.8,5.8C159.8,103.5,159.4,103.6,159,103.6z"
            />
            <path
              fill="#0D173F"
              d="M110.1,87.2c-0.8,0-1.5-0.7-1.5-1.5c0,0,0,0,0,0V74h-9.5c-0.8,0.1-1.6-0.6-1.7-1.4s0.6-1.6,1.4-1.7
				c0.1,0,0.2,0,0.2,0h11c0.8,0,1.5,0.7,1.5,1.5v13.2C111.6,86.5,111,87.2,110.1,87.2z"
            />
            <path
              fill="#0D173F"
              d="M110,88.7L110,88.7c-0.5,0-0.9-0.2-1.2-0.6l-3.8-4.7c-0.5-0.7-0.3-1.7,0.4-2.1c0.6-0.4,1.5-0.3,2,0.2
				l2.6,3.2l2.8-3.1c0.5-0.7,1.5-0.8,2.1-0.3s0.8,1.5,0.3,2.1c-0.1,0.1-0.1,0.1-0.2,0.2l-4,4.5C110.8,88.5,110.4,88.7,110,88.7z"
            />
            <path
              fill="#FFFFFF"
              d="M45.6,13.3c27.8,16.4,36.7,34.9,35.3,39.2c-2.2,6.8-4.8-8.1-18.1-12.7C69.5,44,74.6,55,77.4,62.1
				c2,5.1-1.4,9.4-5.3,2.1c-5-9.2-16.7-19-16.7-19s20.9,29.3,11,36.4c-2.3,1.7-4.6-7.6-8.9-14.9c-5.4-9-11.2-17-11.2-17
				s16.2,30.7,4.7,34.4c-2.1,0.7-5.1-11-8.6-18.7C40.2,60,37.4,54.9,34.2,50c-6-7.7,0.3,18.4-5.8,22.4c-6.5,4.2-10.2-39.9-10.2-39.9
				"
            />
            <path
              fill="#0D173F"
              d="M50.8,86c-2.5,0-4.1-4.2-6.6-11.2c-1.1-3-2.2-6-3.4-8.7c-2.2-4.9-4.7-9.7-7.6-14.3c-0.1,1.4,0,3.2,0,4.8
				c0.1,6.9,0.2,14.8-3.8,17.3c-1,0.7-2.3,0.8-3.3,0.2c-1.5-0.8-6.8-6-9.7-41.5c-0.1-1,0.7-1.9,1.7-2c1-0.1,1.9,0.7,2,1.7l0,0
				c1.4,17.1,4.8,36.3,7.5,38.4c2.1-1.7,2-9.5,2-14.1c-0.1-5.8-0.1-9,2.2-9.8c1.9-0.7,3.4,1.3,4,2c3.3,5,6.1,10.2,8.5,15.7
				c1.2,2.8,2.4,5.9,3.5,8.9s2.6,7.2,3.5,8.5c0.8-0.4,1.3-1.1,1.6-1.9c2.7-6.6-4.9-23.6-8.1-29.6c-0.5-0.9-0.1-2,0.8-2.5
				c0.8-0.4,1.8-0.2,2.3,0.5c0,0.1,5.9,8.2,11.2,17.2c1.6,2.8,3,5.7,4.2,8.6c0.7,1.8,1.6,3.6,2.6,5.2c4.8-5.1-4.7-23-12-33.3
				c-0.6-0.8-0.4-2,0.4-2.6c0.7-0.5,1.6-0.5,2.3,0.1c0.5,0.4,12.1,10.1,17.1,19.6c0.5,1.1,1.2,2.1,2.2,2.8c0.3-1.1,0.3-2.4-0.2-3.4
				c-4.2-10.8-9.1-18.5-13.9-21.5c-0.9-0.5-1.1-1.7-0.6-2.5c0.5-0.7,1.3-1,2.1-0.7c7.7,2.7,12.1,8.5,14.7,12c0.4,0.5,0.8,1,1.1,1.5
				c0.4-4.1-8.6-21.4-34.5-36.7c-0.9-0.5-1.2-1.6-0.7-2.5c0.5-0.9,1.6-1.2,2.5-0.7c27.2,16,38,35.4,36.1,41.3
				c-0.2,0.7-0.8,2.7-2.6,3s-3.1-1.3-4.9-3.8l-0.3-0.5c1.6,3.1,3.1,6.4,4.3,9.7c1.4,3.6,0.7,7.1-1.7,8.2c-1.1,0.5-4,1.1-7-4.5
				c-1.5-2.7-3.3-5.3-5.4-7.7c4.9,9.4,9,21.1,2.5,25.7c-0.7,0.5-1.5,0.7-2.3,0.4c-2-0.5-3.2-3.2-5.2-7.7c-1.2-2.8-2.5-5.5-4-8.2
				l-0.6-1c1.6,5.5,2.4,11.1,0.8,14.8c-0.8,2-2.5,3.6-4.6,4.3C51.4,85.9,51.1,86,50.8,86z"
            />
            <line fill="none" x1="45" y1="106.7" x2="45" y2="139.9" />
            <path
              fill="#0D173F"
              d="M45,141.5c-0.8,0-1.5-0.7-1.5-1.5c0,0,0,0,0,0v-33.2c0-0.8,0.7-1.5,1.5-1.5c0.8,0,1.5,0.7,1.5,1.5v33.2
				C46.5,140.8,45.9,141.5,45,141.5C45,141.5,45,141.5,45,141.5z"
            />
            <line fill="none" x1="51.9" y1="164.2" x2="99.4" y2="164.2" />
            <path
              fill="#0D173F"
              d="M99.4,165.8H51.9c-0.8-0.1-1.5-0.8-1.4-1.7c0.1-0.8,0.7-1.4,1.4-1.4h47.5c0.8,0.1,1.5,0.8,1.4,1.7
				C100.8,165.1,100.2,165.7,99.4,165.8z"
            />
            <line fill="none" x1="64.6" y1="158.8" x2="64.6" y2="162.6" />
            <path
              fill="#0D173F"
              d="M64.6,164.1c-0.9,0-1.5-0.7-1.5-1.5v-3.8c0.1-0.8,0.8-1.5,1.7-1.4c0.8,0.1,1.4,0.7,1.4,1.4v3.8
				C66.1,163.4,65.5,164.1,64.6,164.1z"
            />
            <line fill="none" x1="49.7" y1="108.9" x2="45.8" y2="108.9" />
            <path
              fill="#0D173F"
              d="M49.7,110.5h-3.8c-0.8,0.1-1.6-0.6-1.7-1.4s0.6-1.6,1.4-1.7c0.1,0,0.2,0,0.2,0h3.8c0.8-0.1,1.6,0.6,1.7,1.4
				s-0.6,1.6-1.4,1.7C49.8,110.5,49.7,110.5,49.7,110.5z"
            />
            <line fill="none" x1="49.7" y1="118.2" x2="45.8" y2="118.2" />
            <path
              fill="#0D173F"
              d="M49.7,119.8h-3.8c-0.8,0.1-1.6-0.6-1.7-1.4s0.6-1.6,1.4-1.7c0.1,0,0.2,0,0.2,0h3.8c0.8-0.1,1.6,0.6,1.7,1.4
				s-0.6,1.6-1.4,1.7C49.8,119.8,49.7,119.8,49.7,119.8z"
            />
            <line fill="none" x1="49.7" y1="126.7" x2="45.8" y2="126.7" />
            <path
              fill="#0D173F"
              d="M49.7,128.3h-3.8c-0.8,0-1.5-0.7-1.5-1.5c0-0.8,0.7-1.5,1.5-1.5c0,0,0,0,0,0h3.8c0.8,0,1.5,0.7,1.5,1.5
				C51.2,127.6,50.5,128.3,49.7,128.3C49.7,128.3,49.7,128.3,49.7,128.3z"
            />
            <line fill="none" x1="73.8" y1="158.8" x2="73.8" y2="162.6" />
            <path
              fill="#0D173F"
              d="M73.8,164.1c-0.8,0-1.5-0.7-1.5-1.5c0,0,0,0,0,0v-3.8c0.1-0.8,0.8-1.5,1.7-1.4c0.8,0.1,1.4,0.7,1.4,1.4v3.8
				C75.4,163.4,74.7,164.1,73.8,164.1z"
            />
            <line fill="none" x1="83.1" y1="158.8" x2="83.1" y2="162.6" />
            <path
              fill="#0D173F"
              d="M83.1,164.1c-0.9,0-1.5-0.7-1.5-1.5v-3.8c0.1-0.8,0.8-1.5,1.7-1.4c0.8,0.1,1.4,0.7,1.4,1.4v3.8
				C84.6,163.4,83.9,164.1,83.1,164.1z"
            />
            <line fill="none" x1="92.3" y1="158.8" x2="92.3" y2="162.6" />
            <path
              fill="#0D173F"
              d="M92.3,164.1c-0.8,0-1.5-0.7-1.5-1.5v-3.8c0.1-0.8,0.8-1.5,1.7-1.4c0.8,0.1,1.4,0.7,1.4,1.4v3.8
				C93.8,163.4,93.2,164.1,92.3,164.1z"
            />
            <circle fill="#FFFFFF" cx="142.6" cy="152.4" r="8.3" />
            <path
              fill="#0D173F"
              d="M142.6,162.2c-5.4,0-9.8-4.4-9.8-9.8s4.4-9.8,9.8-9.8s9.8,4.4,9.8,9.8c0,0,0,0,0,0
				C152.4,157.8,148,162.2,142.6,162.2z M142.6,145.6c-3.7,0-6.8,3-6.8,6.8s3,6.8,6.8,6.8s6.8-3,6.8-6.8l0,0
				C149.4,148.7,146.3,145.6,142.6,145.6z"
            />

            <rect
              x="176.2"
              y="146.9"
              transform="matrix(0.7071 -0.7071 0.7071 0.7071 -54.5276 173.105)"
              fill="#FFFFFF"
              width="10.9"
              height="10.9"
            />
            <path
              fill="#0D173F"
              d="M181.7,161.6c-0.4,0-0.8-0.2-1.1-0.4l-7.7-7.7c-0.6-0.6-0.6-1.6,0-2.2c0,0,0,0,0,0l7.7-7.7
				c0.6-0.6,1.6-0.6,2.2,0c0,0,0,0,0,0l7.7,7.7c0.6,0.6,0.6,1.6,0,2.2c0,0,0,0,0,0l-7.7,7.7C182.5,161.5,182.1,161.7,181.7,161.6z
				 M176.1,152.4l5.6,5.6l5.6-5.6l-5.6-5.6L176.1,152.4z"
            />
            <line fill="none" x1="150.9" y1="152.4" x2="168.7" y2="152.4" />
            <path
              fill="#0D173F"
              d="M168.7,153.9h-17.8c-0.8-0.1-1.5-0.8-1.4-1.7c0.1-0.8,0.7-1.4,1.4-1.4h17.8c0.8-0.1,1.6,0.6,1.7,1.4
				c0.1,0.8-0.6,1.6-1.4,1.7C168.9,153.9,168.8,153.9,168.7,153.9z"
            />
            <path
              fill="#0D173F"
              d="M164.6,158.3c-0.4,0-0.8-0.2-1.1-0.4c-0.6-0.6-0.6-1.6-0.1-2.2c0,0,0,0,0,0l3.1-3.3l-3.1-3.1
				c-0.6-0.6-0.6-1.6,0-2.2c0.6-0.6,1.6-0.6,2.2,0l4.1,4.1c0.6,0.6,0.6,1.6,0,2.1l-4.1,4.3C165.4,158.1,165,158.3,164.6,158.3z"
            />
            <path
              fill="#FFFFFF"
              d="M45.6,13.3c27.8,16.4,36.7,34.9,35.3,39.2c-2.2,6.8-4.8-8.1-18.1-12.7C69.5,44,74.6,55,77.4,62.1
				c2,5.1-1.4,9.4-5.3,2.1c-5-9.2-16.7-19-16.7-19s20.9,29.3,11,36.4c-2.3,1.7-4.6-7.6-8.9-14.9c-5.4-9-11.2-17-11.2-17
				s16.2,30.7,4.7,34.4c-2.1,0.7-5.1-11-8.6-18.7C40.2,60,37.4,54.9,34.2,50c-6-7.7,0.3,18.4-5.8,22.4c-6.5,4.2-10.2-39.9-10.2-39.9
				"
            />
            <path
              fill="#0D173F"
              d="M50.8,86c-2.5,0-4.1-4.2-6.6-11.2c-1.1-3-2.2-6-3.4-8.7c-2.2-4.9-4.7-9.7-7.6-14.3c-0.1,1.4,0,3.2,0,4.8
				c0.1,6.9,0.2,14.8-3.8,17.3c-1,0.7-2.3,0.8-3.3,0.2c-1.5-0.8-6.8-6-9.7-41.5c-0.1-1,0.7-1.9,1.7-2c1-0.1,1.9,0.7,2,1.7l0,0
				c1.4,17.1,4.8,36.3,7.5,38.4c2.1-1.7,2-9.5,2-14.1c-0.1-5.8-0.1-9,2.2-9.8c1.9-0.7,3.4,1.3,4,2c3.3,5,6.1,10.2,8.5,15.7
				c1.2,2.8,2.4,5.9,3.5,8.9s2.6,7.2,3.5,8.5c0.8-0.4,1.3-1.1,1.6-1.9c2.7-6.6-4.9-23.6-8.1-29.6c-0.5-0.9-0.1-2,0.8-2.5
				c0.8-0.4,1.8-0.2,2.3,0.5c0,0.1,5.9,8.2,11.2,17.2c1.6,2.8,3,5.7,4.2,8.6c0.7,1.8,1.6,3.6,2.6,5.2c4.8-5.1-4.7-23-12-33.3
				c-0.6-0.8-0.4-2,0.4-2.6c0.7-0.5,1.6-0.5,2.3,0.1c0.5,0.4,12.1,10.1,17.1,19.6c0.5,1.1,1.2,2.1,2.2,2.8c0.3-1.1,0.3-2.4-0.2-3.4
				c-4.2-10.8-9.1-18.5-13.9-21.5c-0.9-0.5-1.1-1.7-0.6-2.5c0.5-0.7,1.3-1,2.1-0.7c7.7,2.7,12.1,8.5,14.7,12c0.4,0.5,0.8,1,1.1,1.5
				c0.4-4.1-8.6-21.4-34.5-36.7c-0.9-0.5-1.2-1.6-0.7-2.5c0.5-0.9,1.6-1.2,2.5-0.7c27.2,16,38,35.4,36.1,41.3
				c-0.2,0.7-0.8,2.7-2.6,3s-3.1-1.3-4.9-3.8l-0.3-0.5c1.6,3.1,3.1,6.4,4.3,9.7c1.4,3.6,0.7,7.1-1.7,8.2c-1.1,0.5-4,1.1-7-4.5
				c-1.5-2.7-3.3-5.3-5.4-7.7c4.9,9.4,9,21.1,2.5,25.7c-0.7,0.5-1.5,0.7-2.3,0.4c-2-0.5-3.2-3.2-5.2-7.7c-1.2-2.8-2.5-5.5-4-8.2
				l-0.6-1c1.6,5.5,2.4,11.1,0.8,14.8c-0.8,2-2.5,3.6-4.6,4.3C51.4,85.9,51.1,86,50.8,86z"
            />
            <path
              fill="#FFFFFF"
              d="M202.7,1.8c-21.5,3.7-43.1,27-41.7,36.8c1,7.2,8.6-6.1,18.8-13.1c-13.1,7.8-21.5,23.5-19.3,26.5
				c3.9,5.3,11.3-11.2,21.5-18.5c-7.6,4.8-19.8,22.4-16.1,25.6c3.3,2.9,19.6-19.6,19.6-19.6c-11.6,14-14.9,25.4-9.8,25.8
				c5.3,0.4,19-26.8,27.1-25.4c6.8,1.2-2.6,20.2,3.6,21.5s16.4-23.1,16.4-30.5"
            />
            <path
              fill="#0D173F"
              d="M175.8,67.1h-0.3c-1.6-0.1-2.9-1.1-3.5-2.5c-0.7-1.6-0.5-3.9,0.3-6.7c-2.1,1.9-3.9,3.1-5.3,3.3
				c-0.8,0.1-1.7-0.1-2.3-0.7c-1-1-1.5-2.3-1.3-3.7c0.1-0.7,0.2-1.4,0.4-2.1c-0.5,0.2-1.1,0.3-1.6,0.3c-1.3-0.1-2.5-0.7-3.2-1.8
				c-0.8-1.3-1-2.8-0.5-4.2c0.6-2.3,1.5-4.6,2.7-6.7c-1.1-0.5-1.8-1.6-2-3.4c-0.9-6.6,6-15.8,12.9-22.3c9.2-8.8,20.3-14.9,30.3-16.6
				c1-0.2,2,0.5,2.1,1.5c0.2,1-0.5,2-1.5,2.1c0,0,0,0,0,0c-21,3.6-41.3,26.6-40.2,34.8c0,0.1,0,0.2,0,0.2c0.6-0.4,1.1-0.9,1.6-1.4
				c3.9-5.3,8.8-9.8,14.4-13.3c0.9-0.6,2-0.3,2.6,0.6c0.6,0.9,0.3,2-0.6,2.6l0,0c-3.8,2.8-7.3,5.9-10.4,9.4c-1.1,1.2-2.1,2.2-3,3.1
				c-3.9,5.3-5.9,10.1-5.4,11.4c0.1,0.1,0.2,0.2,0.3,0.2c1.1,0.2,4.8-4.4,7-7.1l0.8-1c3.5-4.7,7.7-9.1,11-11.2
				c0.9-0.5,2-0.1,2.5,0.8c0.4,0.8,0.2,1.7-0.5,2.3c-3.8,2.7-7.2,6.8-10.3,10.6c-3.5,5-6.1,10-5.8,11.8c2.1-0.9,7.2-6.5,12.3-12.8
				c1.4-2,3-4.1,4.8-6.2c0.6-0.8,1.8-1,2.6-0.3s1,1.8,0.3,2.6l0,0c-1,1.4-2.8,3.8-4.9,6.4c-5.7,8.3-7.5,14.3-6.7,16.2
				c0.1,0.2,0.1,0.2,0.4,0.3c1.5-0.2,6.1-6,9.1-10c6.2-8.1,12.6-16.4,18.3-15.4c5.2,1,4.3,7.4,3.4,13.2c-0.4,3-1.1,8.1,0.1,8.3
				c0.3,0.1,0.8-0.1,1.6-0.8c5.5-4.5,12.5-22.2,12.5-27.9c0.1-1,1-1.8,2-1.7c0.9,0.1,1.6,0.8,1.7,1.7c0,6.6-7.5,25.5-13.9,30.7
				c-1.2,1.2-3,1.8-4.7,1.5c-4.7-0.9-3.8-7-3-12.5c0.5-3.7,1.2-8.7-0.5-9c-3.4-0.6-10.2,8.2-14.7,14
				C182.2,62.9,178.9,67.1,175.8,67.1z M163,39.2L163,39.2z"
            />
            <path
              fill="#FFFFFF"
              d="M244.4,116.3c-12.9-3.7-25.7-5.7-34.4-4.9c-13,1.2-19,9.5-21.5,15c-0.4,0.4-0.3,1.1,0.1,1.4
				c0.4,0.4,1.1,0.3,1.4-0.1c4.9-3.1,10.2-5.7,15.6-7.7c-13.2,2.4-25.5,17.5-19.9,23.3c5.1-8.7,13.7-14.7,23.6-16.7
				c-17.6,4-26,19.5-24.8,26.5c5.2,4.6,7.8-6.8,11.7-10.7c6.9-6.9,17.5-7.9,17.5-7.9c-6.3,1.5-13.2,3-17.2,7.3
				c-5.9,6.4-7.6,14.6-5.7,16.8c2.6,3,6.5-4.9,12.2-10c3.2-2.9,7.4-4.5,11.7-4.3c10.1,0-7.7,5.6-2.1,11.5c4,4.2,10.6-4.1,22.1-8.2"
            />
            <path
              fill="#0D173F"
              d="M192.1,161c-1,0-2-0.5-2.7-1.3c-0.8-1.1-1.2-2.5-1.1-3.9c-0.2,0.1-0.4,0.1-0.6,0.1c-1.6,0.2-3.2-0.3-4.3-1.5
				c-0.3-0.3-0.5-0.7-0.6-1.1c-0.3-3.1,0.2-6.2,1.6-9c-1.8-2-2.2-4.9-1.1-8.1c1-2.7,2.5-5.2,4.4-7.3c-0.9-0.8-1.2-2.2-0.7-3.3
				c2.5-5.4,8.8-14.7,23-16c8.6-0.8,21.3,1,35.1,5c1,0.4,1.4,1.4,1.1,2.4c-0.3,0.9-1.2,1.3-2.1,1.2c-13.3-3.9-25.6-5.6-33.7-4.8
				c-10.3,1-15.8,6.7-18.6,11.3c0.7-0.4,1.5-0.8,2.2-1.2c3.5-2.5,7.4-4.3,11.6-5.1c1-0.2,2,0.3,2.2,1.3c0.2,0.9-0.3,1.9-1.2,2.2
				c-3.7,1.3-7.2,2.9-10.7,4.8c-4.4,3.2-7.8,7.4-9,10.9c-0.2,0.6-0.3,1.2-0.4,1.9c5.5-7.5,13.7-12.7,22.9-14.4
				c1-0.1,1.9,0.6,2.1,1.6c0.1,1-0.5,1.9-1.4,2.1c-15.6,3.6-23.9,17.1-23.5,23.7c0.2,0.2,0.5,0.2,0.7,0.2c0.7-0.1,1.6-1.3,2.5-2.6
				c1.3-3.4,3.2-6.5,5.7-9.2c2.2-2.3,5-4,8-5c3.3-1.5,6.8-2.4,10.3-2.8c1-0.1,1.9,0.6,2,1.6c0.1,0.9-0.5,1.8-1.5,2l-0.6,0.1
				c-3,0.6-5.9,1.4-8.8,2.4c-2.7,1.1-5.1,2.8-7.2,4.8c-1.2,1.5-2.3,3.2-3.2,4.9c-0.5,1-1.1,1.9-1.6,2.8c-1,3-1.1,5.3-0.6,5.9
				c0.9-0.4,2.8-2.7,4.1-4.2c1.7-2.1,3.5-4.1,5.4-5.9c3.5-3.2,8.1-5,12.9-4.8c2.1,0,4.2,0.1,4.9,1.9s-0.9,3.1-2.7,4.6
				c-1.4,1.2-3.5,3-3.6,4.3c0,0.5,0.2,0.9,0.6,1.2c1.3,1.3,3.4,0.3,8.4-2.7c3.7-2.4,7.7-4.4,11.8-6c1-0.3,2,0.2,2.4,1.1
				c0.3,1-0.2,2-1.1,2.4c-3.9,1.5-7.6,3.4-11.1,5.6c-5.1,3.1-9.5,5.7-12.9,2.1c-1.1-1-1.6-2.5-1.6-3.9c0.1-2.9,2.8-5.1,4.9-6.9
				c-3.8-0.1-7.5,1.2-10.2,3.8c-1.8,1.7-3.5,3.6-5.1,5.5C196.5,158.7,194.5,161,192.1,161L192.1,161z"
            />
            <path
              fill="#FFFFFF"
              d="M1.8,169.9c14.5-28.8,32.4-38.8,36.8-37.7c6.9,1.7-7.8,5.3-11.5,18.9c3.8-7,8.4-11.2,15.4-15.7
				c7.6-4.9,14.7-0.6,7.8,3.7c-8.9,5.5-16.1,16.8-16.1,16.8s19.8-25,28.9-17.8c2.3,1.8-5.3,8.4-11.7,13.9c-4.4,3.7-8.5,7.8-12.3,12
				c0,0,27.7-29.9,32.1-18.6c0.8,2.1-13.3,12.8-19.4,18.8c-11,10.8-12.7,14.6-12.7,14.6c-7.3,6.5,16.7-8.6,21.1-2.8
				C65,182.3,22.8,196,22.8,196"
            />
            <path
              fill="#0D173F"
              d="M22.8,197.9c-1,0-1.8-0.8-1.8-1.8c0-0.8,0.5-1.5,1.3-1.8c19.6-6.4,36.4-14.2,36.6-17.1
				c-1.8-2.3-12.4,2.1-15.9,3.6c-4.2,1.8-5.7,2.4-6.7,0.8s0.3-2.7,1.5-3.7c0.7-1.3,3.5-5.6,12.9-14.8c2.1-2.1,5.2-4.7,8.2-7.3
				c3.8-3.3,9.5-8.2,10.6-10c-0.2-0.5-0.7-0.8-1.2-0.9c-5.3-1-19.8,12-27.7,20.5c-0.7,0.7-1.9,0.7-2.6,0c-0.7-0.7-0.7-1.7-0.1-2.5
				c3.9-4.4,8-8.5,12.5-12.3c3.2-2.8,10.4-9,11.3-11.3c-6.5-4-21.2,11.8-26,17.8c-0.6,0.8-1.8,1-2.6,0.4c-0.8-0.6-1-1.7-0.4-2.5
				c0.3-0.5,7.5-11.6,16.6-17.4c1.6-1,2-1.8,2-1.9c-0.2-0.2-0.5-0.3-0.8-0.4c-1.4-0.4-4-0.1-6.9,1.8c-6.3,4.1-11,8-14.8,15
				c-0.5,0.9-1.6,1.2-2.5,0.7c-0.8-0.4-1.1-1.3-0.9-2.1c2.2-7.9,7.8-12.6,11.1-15.4c0.5-0.4,1-0.8,1.4-1.2
				c-4.2-0.1-20.8,10-34.4,36.8c-0.5,0.9-1.6,1.2-2.5,0.6c-0.8-0.5-1.1-1.5-0.8-2.3c14.2-28.2,32.9-40.2,38.9-38.7
				c0.8,0.2,2.7,0.7,3.2,2.4c0,0.2,0.1,0.4,0.1,0.6c4.2-2.4,8.2-2.4,10.4-1.2c1.3,0.6,2.2,1.9,2.3,3.3c0,0.1,0,0.2,0,0.3
				c3.4-1.2,6.7-1.3,9.3,0.8c0.7,0.5,1.1,1.4,1.1,2.2c-0.1,1-0.4,2-1,2.8c1.4-0.5,3-0.7,4.5-0.5c1.9,0.4,3.5,1.7,4.1,3.6
				c0.9,2.3-1.6,4.8-11.9,13.7c-2.9,2.5-6,5.1-8,7.1c-3.7,3.5-7.1,7.2-10.3,11.2c8.3-3.4,15.8-5.8,18.9-1.8c0.7,0.9,0.9,2.2,0.5,3.3
				c-2.2,7.1-30.4,16.7-39,19.5C23.1,197.8,23,197.9,22.8,197.9z"
            />
          </g>
        </g>
      </g>
    </svg>