<svg width="18" height="18" viewBox="0 0 18 18" fill="none" xmlns="http://www.w3.org/2000/svg">
<path d="M1.89579 15.7644H3.06602C3.24887 15.7657 3.43017 15.7316 3.59949 15.6638C3.76881 15.5961 3.92279 15.4962 4.05257 15.3699C4.18234 15.2435 4.28533 15.0932 4.35562 14.9276C4.4259 14.762 4.46208 14.5844 4.46208 14.4051V7.76955C4.46208 7.58971 4.42597 7.41164 4.35581 7.2455C4.28565 7.07936 4.18282 6.92839 4.05318 6.80123C3.92354 6.67407 3.76964 6.5732 3.60027 6.50439C3.43089 6.43557 3.24935 6.40015 3.06602 6.40015V6.40015C2.73556 6.39987 2.41555 6.51375 2.16214 6.72181C1.90873 6.92987 1.73812 7.21882 1.68023 7.53796L0.520266 14.1735C0.485707 14.3695 0.495436 14.5706 0.548767 14.7626C0.602098 14.9545 0.69773 15.1326 0.828913 15.2843C0.960096 15.4361 1.12363 15.5577 1.30798 15.6407C1.49232 15.7236 1.69298 15.7659 1.89579 15.7644V15.7644Z" stroke="#9C9FB8" stroke-miterlimit="10"/>
<path d="M11.3296 0.560059L6.7821 6.95394C6.57012 7.24869 6.45546 7.60015 6.45361 7.96085V13.2069C6.45371 13.5907 6.58087 13.9642 6.81597 14.2711C7.05108 14.578 7.38141 14.8017 7.75729 14.9085L13.3313 16.4894C13.5624 16.5552 13.8046 16.5753 14.0438 16.5486C14.283 16.5218 14.5144 16.4487 14.7245 16.3334C14.9346 16.2182 15.1193 16.0632 15.2678 15.8773C15.4163 15.6915 15.5257 15.4785 15.5896 15.2509L17.4373 8.40389C17.5099 8.14104 17.5197 7.86531 17.466 7.59813C17.4124 7.33094 17.2966 7.07948 17.1278 6.86327C16.9591 6.64706 16.7417 6.47192 16.4928 6.35143C16.2438 6.23095 15.9699 6.16837 15.6922 6.16855H12.7872C12.6182 6.15349 12.4556 6.09754 12.314 6.00573C12.1724 5.91391 12.0562 5.78908 11.9759 5.64243C11.8955 5.49577 11.8535 5.33186 11.8536 5.16536C11.8536 4.99887 11.8958 4.83499 11.9763 4.68839L13.2697 2.82561C13.3947 2.65113 13.4741 2.44912 13.5007 2.23744C13.5273 2.02575 13.5003 1.8109 13.4222 1.61185C13.3441 1.4128 13.2172 1.23569 13.0527 1.09616C12.8883 0.95662 12.6913 0.858955 12.4792 0.811786L11.3296 0.560059Z" stroke="#9C9FB8" stroke-miterlimit="10"/>
</svg>
