<svg width="18" height="18" viewBox="0 0 18 18" fill="none" xmlns="http://www.w3.org/2000/svg">
<path d="M15.766 1.79492H14.6547C14.3048 1.79758 13.97 1.94303 13.7235 2.19957C13.477 2.45611 13.3386 2.80292 13.3386 3.16438V9.79016C13.3386 10.1516 13.477 10.4984 13.7235 10.755C13.97 11.0115 14.3048 11.157 14.6547 11.1596C14.9679 11.1616 15.2715 11.048 15.511 10.8395C15.7504 10.6309 15.91 10.341 15.961 10.0218L17.0334 3.39598C17.0655 3.20275 17.0572 3.00463 17.0088 2.81503C16.9605 2.62542 16.8733 2.44874 16.7532 2.29695C16.633 2.14516 16.4827 2.02178 16.3124 1.93517C16.1421 1.84856 15.9558 1.80073 15.766 1.79492Z" stroke="#9C9FB8" stroke-miterlimit="10"/>
<path d="M6.807 17L11.1257 10.6159C11.3264 10.3208 11.4352 9.96955 11.4376 9.60894V4.35262C11.4387 3.96869 11.3197 3.59468 11.0984 3.28623C10.877 2.97779 10.5652 2.75141 10.2093 2.64079L4.93526 1.06994C4.71507 1.00427 4.48441 0.984576 4.25677 1.012C4.02912 1.03942 3.80904 1.11341 3.60939 1.22965C3.40973 1.34589 3.23449 1.50205 3.0939 1.68901C2.95331 1.87597 2.85019 2.08999 2.79056 2.31857L1.00656 9.15581C0.937712 9.42002 0.928687 9.69707 0.980181 9.96547C1.03168 10.2339 1.14231 10.4864 1.3035 10.7036C1.46469 10.9207 1.67212 11.0966 1.90971 11.2176C2.1473 11.3386 2.40867 11.4014 2.67357 11.4013H5.42269C5.58899 11.4 5.75248 11.4455 5.89565 11.5329C6.03882 11.6203 6.15628 11.7463 6.23542 11.8974C6.31456 12.0485 6.35241 12.2189 6.3449 12.3905C6.3374 12.5621 6.28484 12.7284 6.19284 12.8715L4.96451 14.7343C4.84573 14.9082 4.77009 15.1094 4.74426 15.3205C4.71843 15.5316 4.74318 15.746 4.81634 15.9449C4.88951 16.1437 5.00885 16.321 5.16387 16.4611C5.31889 16.6012 5.50485 16.6998 5.7054 16.7483L6.807 17Z" stroke="#9C9FB8" stroke-miterlimit="10"/>
</svg>
