<svg
      xmlns="http://www.w3.org/2000/svg"
      viewBox="0 0 224.47 247.68"
    >
      <g id="Layer_2" data-name="Layer 2">
        <g id="Layer_1-2" data-name="Layer 1">
          <polygon
            fill="#ffd0d6"
            points="85.83 179.87 120.55 177.38 122.11 197.56 86.47 200.35 85.83 179.87"
          />
          <path
            fill="#bdeeff"
            d="M96.4,213.07c-1.59-1.11-3.28-1-5.07-1.43-2.52-.54-2.48-2-4.24-3.66-3.28-3.16-8.48.68-11.27-1.83a5.1,5.1,0,0,0-7.49.72,5.31,5.31,0,0,0-1.64,3.42c-1.61,2.73-1.66,6.2-1.92,9.35-.32,3.91-.91,7.69,3.19,9.41,3.81,1.59,8.72,1.78,12.8,2.25a25.7,25.7,0,0,0,12.3-1.22C100.1,227.35,103.52,218.05,96.4,213.07Z"
          />
          <path
            fill="#bdeeff"
            d="M162.07,226.4c.56-2.76-.08-6.13-.36-8.64a13.45,13.45,0,0,0-2-5.86c.76-3.45-2.19-7.43-6.08-6.13-4.94,1.66-7.12,3.33-11.13,5.31-2.74,1.37-8.64-.38-8.78,1.91-4.27.41-5.39,5.39-3,8.49-1-1.28-.08,1.25.06,1.65a8.33,8.33,0,0,0,1.83,3.06,35.47,35.47,0,0,0,6.17,4.12,18.68,18.68,0,0,0,8.23,2.17c3.47.27,7,.79,10.5.82C161.64,233.33,163.14,229.35,162.07,226.4Z"
          />
          <path
            fill="#bdeeff"
            d="M141.06,48.19A22.62,22.62,0,0,0,136.75,37c-4.83-6.68-10.38-10.28-18.53-11.76A50.13,50.13,0,0,0,94,26.67c-3.29,1.06-6.9,2.34-9.17,5.07a49.68,49.68,0,0,0-5.61,9.18c-1.92,3.95-1.31,8,.26,11.94.49,1.22.92,2.44,1.32,3.66a8.65,8.65,0,0,0-6.21,2.24c-3,2.79-3.06,7.55-1,10.89,2.65,4.26,7.79,5.15,12.38,4.21A29.77,29.77,0,0,0,88.78,79C85,82.77,83.55,90.7,87.12,94.68c2.42,2.71,7,3,10.2,4.18,4.51,1.64,7.09,4.37,10,8.07,3.29,4.21,9.38-.47,8.36-4.87-1.15-4.94,11.69-6,14.34-7.86s3.55-4,2.82-6.87l-.47-10.85c.9-2.33,1.38-4.79,2.65-6.92.9-1.5,2.43-2.52,3.29-4.13a16.81,16.81,0,0,0,1.45-4.1c2.07-.75,4-1.55,5.13-3.75A6.7,6.7,0,0,0,141.06,48.19ZM99.39,53.45a3.16,3.16,0,0,1-1.44.22,4.85,4.85,0,0,1-1.26-.17,16.12,16.12,0,0,1-3.86.32A6.63,6.63,0,0,1,88.27,52a5.23,5.23,0,0,1-1.48-3.67.57.57,0,0,1,0-.14l0,0a4.86,4.86,0,0,1,1.08-5.13,5.28,5.28,0,0,1,4.64-1.37,3.29,3.29,0,0,1,.92-.29c3.49-.61,7.58-1.14,9.26,2.83C104.07,47.51,103.23,52.36,99.39,53.45Zm34-7.83a5.26,5.26,0,0,1-4,5,31.61,31.61,0,0,1-4.23.57,15.23,15.23,0,0,1-3.81.17,5.24,5.24,0,0,1-3-1.48A4.94,4.94,0,0,1,117,47.64c-.06-.44-.1-.78-.14-1,0,.12,0,.27,0,.45a5.54,5.54,0,0,1,0-2.4c-.87-2.17.38-4.83,2.24-6a4.57,4.57,0,0,1,5,.1,5.18,5.18,0,0,1,4.74-1.11C132.35,38.6,133.47,42.44,133.36,45.62Zm-16.49,1c0-.11,0-.18,0-.24A1.39,1.39,0,0,0,116.87,46.61Z"
          />
          <path
            fill="#0d173f"
            d="M132.78,214a1.55,1.55,0,0,1-1.56-1.48L129,169l-50.71,4.72,1.2,31.05a1.56,1.56,0,0,1-1.5,1.62,1.59,1.59,0,0,1-1.63-1.5l-1.25-32.53a1.57,1.57,0,0,1,1.42-1.62l53.8-5a1.55,1.55,0,0,1,1.17.37,1.57,1.57,0,0,1,.54,1.1l2.29,45.12a1.57,1.57,0,0,1-1.49,1.64Z"
          />
          <path
            fill="#0d173f"
            d="M85.45,208.16a1.25,1.25,0,0,1-.12-2.49l37.53-3.76a1.26,1.26,0,0,1,1.37,1.13,1.24,1.24,0,0,1-1.12,1.36l-37.53,3.76Z"
          />
          <path
            fill="#0d173f"
            d="M81.07,247.68a1.51,1.51,0,0,1-1-.36,1.56,1.56,0,0,1-.57-1.13l-.62-13.14a1.56,1.56,0,1,1,3.12-.14l.54,11.42,50.17-7.08.17-7.85a1.57,1.57,0,1,1,3.13.07l-.21,9.18a1.56,1.56,0,0,1-1.34,1.51l-53.18,7.51Z"
          />
          <path
            fill="#0d173f"
            d="M147.39,205.77a1.57,1.57,0,0,1-1.57-1.57V154l-58,5.92,1.07,9.69a1.56,1.56,0,1,1-3.1.35l-1.26-11.26a1.61,1.61,0,0,1,.34-1.16,1.56,1.56,0,0,1,1.06-.57l61.31-6.26a1.58,1.58,0,0,1,1.72,1.56V204.2A1.56,1.56,0,0,1,147.39,205.77Z"
          />
          <path
            fill="#0d173f"
            d="M86.29,201.49a1.24,1.24,0,0,1-.84-.32,1.22,1.22,0,0,1-.41-.88l-.84-20.85a1.26,1.26,0,0,1,1.16-1.3l35.45-2.5a1.23,1.23,0,0,1,.92.3,1.29,1.29,0,0,1,.42.87l1.25,20.85a1.25,1.25,0,0,1-1.16,1.33l-35.87,2.5Zm.46-20.94.74,18.35,33.34-2.32-1.1-18.36Z"
          />
          <path
            fill="#0d173f"
            d="M93.38,214a1.25,1.25,0,0,1-.14-2.49l30.86-3.34a1.25,1.25,0,1,1,.27,2.49L93.51,214Z"
          />
          <path
            fill="#0d173f"
            d="M99.21,219.43a1.25,1.25,0,0,1-.18-2.49l14.18-2.09a1.25,1.25,0,0,1,.37,2.48L99.4,219.41Z"
          />
          <path
            fill="#0d173f"
            d="M107.61,89.5c-6.52,0-12.2-1.4-15.44-3.91C80.85,76.82,78.22,62,75.43,46.33q-.53-3-1.09-6.07a1.55,1.55,0,0,1,1.24-1.82,1.57,1.57,0,0,1,1.83,1.24c.38,2,.74,4.08,1.1,6.1,2.68,15.07,5.21,29.3,15.58,37.34,6.79,5.26,28.46,4.57,36.38-4.82,3.9-4.61,7.71-22.18,3.51-45.25a1.56,1.56,0,0,1,3.08-.55c3.15,17.33,2.44,40-4.2,47.82-4.07,4.82-11.6,8.08-20.68,9C110.63,89.43,109.09,89.5,107.61,89.5Z"
          />
          <path
            fill="#0d173f"
            d="M109.81,112.5a1.57,1.57,0,0,1-1.33-.74l-7.9-12.84L84.7,94.8a1.57,1.57,0,0,1-1.16-1.71L85.38,78.6a1.56,1.56,0,0,1,3.1.4L86.82,92.11,102,96.05a1.61,1.61,0,0,1,.94.7l6.75,11,4.91-9.82a1.55,1.55,0,0,1,.93-.79c6.61-2.1,13.91-4.67,16.31-5.89a21.86,21.86,0,0,1-.62-13.4,1.57,1.57,0,0,1,3,.93c0,.06-1.89,6.39.94,12.22a1.7,1.7,0,0,1,0,1.43c-.28.65-.87,2-18.07,7.49l-5.88,11.75a1.54,1.54,0,0,1-1.33.86Z"
          />
          <path
            fill="#0d173f"
            d="M75.93,235.06c-12.93,0-31.74-4.82-54.14-24.79C2.86,193.39-10,177.88,10.3,145.2c14.19-22.82,26.52-40.9,45.14-48.79a58.87,58.87,0,0,1,20.87-5.07c2.52-.23,5.13-.47,8.32-1a1.56,1.56,0,0,1,1.76,1.17l4.7,19.25,8.31-9.13a1.49,1.49,0,0,1,1.16-.51,1.54,1.54,0,0,1,1.16.52l8.23,9.26a1.56,1.56,0,0,1-.13,2.21,1.58,1.58,0,0,1-2.21-.13l-7.07-8-9.11,10a1.58,1.58,0,0,1-1.54.46,1.55,1.55,0,0,1-1.14-1.15L83.69,93.67c-2.65.38-4.91.58-7.1.78a55.68,55.68,0,0,0-19.93,4.84c-17.78,7.53-29.81,25.22-43.7,47.56-19.07,30.67-7.5,44.67,10.91,61.09C49,230.33,69.12,233.22,81.58,231.69c7.62-.94,12.28-3.59,13.61-4.72a1.87,1.87,0,0,1,0-.34,1.57,1.57,0,0,1,1.84-1.23,1.8,1.8,0,0,1,1.46,1.48c.07.52.28,1.91-3.84,4.14C93.25,231.79,86.58,235.06,75.93,235.06Zm20.52-6.59h0Z"
          />
          <path
            fill="#0d173f"
            d="M139.11,218.89c-5.74,0-9-1.46-10.22-3.15a2.87,2.87,0,0,1-.3-3c.66-1.24,2.2-1.91,4.23-1.86,1.8,0,3.54,0,5.13,0-2.15-.7-3.76-1.91-3.7-4.15a2.76,2.76,0,0,1,.85-2c1.17-1.09,3-1,6-.86a45.6,45.6,0,0,0,14.37-1.13c11.13-2.84,28.14-18.23,27.29-31.12-.41-6.11-8-11.53-16.73-17.8l-1-.69a1.57,1.57,0,1,1,1.83-2.54l1,.69c9.41,6.73,17.52,12.55,18,20.13,1,14.56-17.25,31.2-29.64,34.36A49.5,49.5,0,0,1,140.93,207a20.38,20.38,0,0,0-3.51,0c.33.84,2.86,1.43,7.51,1.76,2.61.19,4.33.32,4.33,2.07a1.82,1.82,0,0,1-.56,1.3c-1.91,1.86-13.07,2-16,1.9a3.71,3.71,0,0,0-1.14.13c.88.81,4.66,2.61,14.3,1.06a1.56,1.56,0,1,1,.49,3.09A46.82,46.82,0,0,1,139.11,218.89Z"
          />
          <path
            fill="#0d173f"
            d="M134.5,116.62a1.53,1.53,0,0,1-.94-.32l-15.31-11.48L111,113a1.57,1.57,0,0,1-2.34-2.08l8.23-9.26a1.56,1.56,0,0,1,2.11-.21l14,10.48.15-20.77a1.57,1.57,0,0,1,3.13,0l-.17,23.87a1.58,1.58,0,0,1-1.56,1.56Z"
          />
          <path
            fill="#0d173f"
            d="M139,224.11a20.14,20.14,0,0,1-9-1.87,5.83,5.83,0,0,1-3.1-3.16,2.42,2.42,0,0,1,.42-2.31c1.39-1.67,5.29-1.49,7.49-1.23a1.57,1.57,0,0,1-.36,3.11,16.67,16.67,0,0,0-4.2,0,5.1,5.1,0,0,0,1.19.81c3.1,1.61,9.14,2.3,15.65.21a1.57,1.57,0,1,1,1,3A29.8,29.8,0,0,1,139,224.11Z"
          />
          <path
            fill="#0d173f"
            d="M142.87,229.15c-7.16,0-13.89-1.41-15-4.31a2.47,2.47,0,0,1,.27-2.43c1.26-1.74,4.88-1.81,6.93-1.7a1.56,1.56,0,1,1-.17,3.12,14.4,14.4,0,0,0-3.68.25c1.64,1,7.38,2.53,16.22,1.74a1.57,1.57,0,0,1,.28,3.12C146.11,229.08,144.48,229.15,142.87,229.15Z"
          />
          <path
            fill="#0d173f"
            d="M153.51,235.38c-.67,0-1.33,0-2,0a34.38,34.38,0,0,1-17.6-5.43c-3.36-2.31-3.11-3.48-3-4a1.73,1.73,0,0,1,1.37-1.35,1.57,1.57,0,0,1,1.84,1.23,1.53,1.53,0,0,1,0,.3c1.06,1.08,4.88,3.79,11.13,5.24,7.57,1.76,19.69,1.87,34.45-7.59,15.17-9.73,35.12-31.41,41.42-60.53,3-14-26.86-43-42.78-54.71-18.47-13.6-25-16-43.89-15.76a1.53,1.53,0,0,1-1.58-1.54,1.56,1.56,0,0,1,1.55-1.58c20.48-.23,27.75,3.09,45.78,16.36a199.25,199.25,0,0,1,28.72,26.66c11.7,13.41,16.83,23.92,15.25,31.23-8.38,38.76-37.11,58.86-42.78,62.5C172.07,232.35,162.7,235.38,153.51,235.38Z"
          />
          <path
            fill="#0d173f"
            d="M90.23,219.72a45.83,45.83,0,0,1-7.29-.64,1.57,1.57,0,0,1,.5-3.09c9.64,1.56,13.42-.24,14.3-1.05a3.2,3.2,0,0,0-1.15-.13c-2.88.07-14,0-16-1.9a1.81,1.81,0,0,1-.57-1.3c0-1.76,1.73-1.88,4.34-2.07,4.68-.34,7.2-.93,7.52-1.76a20.43,20.43,0,0,0-3.53,0,49.14,49.14,0,0,1-15.28-1.23c-12.62-3.21-37.05-16.49-36.36-32.65.3-7,10.15-14.79,19.72-18.89a1.57,1.57,0,0,1,1.23,2.88c-8.58,3.67-17.59,10.72-17.82,16.14-.59,13.72,21.48,26.3,34,29.49a45.6,45.6,0,0,0,14.37,1.13c3-.14,4.8-.22,6,.86a2.73,2.73,0,0,1,.86,2c.06,2.23-1.55,3.45-3.7,4.14,1.59.07,3.32.09,5.12,0,2-.05,3.58.63,4.23,1.86a2.83,2.83,0,0,1-.3,3C99.23,218.26,96,219.72,90.23,219.72Z"
          />
          <path
            fill="#0d173f"
            d="M90.32,224.94a29.44,29.44,0,0,1-9-1.46,1.56,1.56,0,0,1,1-3c6.52,2.09,12.56,1.4,15.65-.2a5.29,5.29,0,0,0,1.19-.81,16.51,16.51,0,0,0-4.19,0,1.57,1.57,0,1,1-.37-3.11c2.21-.25,6.11-.43,7.49,1.24a2.42,2.42,0,0,1,.43,2.31,5.81,5.81,0,0,1-3.1,3.15A20.17,20.17,0,0,1,90.32,224.94Z"
          />
          <path
            fill="#0d173f"
            d="M86.47,230c-1.61,0-3.25-.08-4.84-.22a1.56,1.56,0,1,1,.28-3.11c8.77.78,14.5-.73,16.19-1.75a14.15,14.15,0,0,0-3.65-.25,1.56,1.56,0,1,1-.17-3.12c2-.11,5.66,0,6.93,1.71a2.5,2.5,0,0,1,.27,2.43C100.35,228.57,93.62,230,86.47,230Z"
          />
          <path
            fill="#0d173f"
            d="M59.1,149.87l-5,44.82a1.56,1.56,0,1,1-3.1-.35v-.06l6.61-44.6a.76.76,0,0,1,1.51.19Z"
          />
          <path
            fill="#0d173f"
            d="M109.55,62a25,25,0,0,1-5.51-.69,1.57,1.57,0,1,1,.75-3c2.13.53,6.1,1,7.65.09,1-1.21-1.25-10.39-6-17.24A1.56,1.56,0,1,1,109,39.32c3.87,5.58,7.5,15,6.56,19.36A3.4,3.4,0,0,1,114,61,9,9,0,0,1,109.55,62Z"
          />
          <path
            fill="#0d173f"
            d="M138,63.92h-.46a1.57,1.57,0,0,1,.14-3.13,5,5,0,0,0,4.74-2.41,7.45,7.45,0,0,0,.1-7.29,5.7,5.7,0,0,0-5.4-2.86A1.56,1.56,0,1,1,137,45.1a8.8,8.8,0,0,1,8.17,4.43A10.57,10.57,0,0,1,145.06,60,8.09,8.09,0,0,1,138,63.92Z"
          />
          <path
            fill="#0d173f"
            d="M79.61,76a7.72,7.72,0,0,1-6.2-3.21C70.18,68.62,69.52,61,72.06,57.16a5.13,5.13,0,0,1,5.85-2.28,1.56,1.56,0,0,1-.78,3,2,2,0,0,0-2.45,1c-1.64,2.5-1.4,8.62,1.2,11.95a4.73,4.73,0,0,0,5.77,1.62,1.57,1.57,0,0,1,1,3A9.32,9.32,0,0,1,79.61,76Z"
          />
          <path
            fill="#0d173f"
            d="M103.64,46.88a1.31,1.31,0,0,1-.73-.23,1.25,1.25,0,0,1-.29-1.74,10.34,10.34,0,0,1,6.37-4,9.12,9.12,0,0,1,7.1,2.35,1.25,1.25,0,0,1-1.58,1.94,6.77,6.77,0,0,0-5.17-1.81,7.82,7.82,0,0,0-4.68,2.94A1.26,1.26,0,0,1,103.64,46.88Z"
          />
          <path
            fill="#0d173f"
            d="M165.63,141,169,198.5a1.57,1.57,0,1,1-3.13.19v-.05l-1.66-57.59a.73.73,0,0,1,.7-.75A.74.74,0,0,1,165.63,141Z"
          />
          <path
            fill="#0d173f"
            d="M63.56,233.29a1,1,0,0,1-.24,0A1.56,1.56,0,0,1,62,231.49l4.38-28.15a1.56,1.56,0,1,1,3.09.48L65.1,232A1.56,1.56,0,0,1,63.56,233.29Z"
          />
          <path
            fill="#0d173f"
            d="M47.92,226.41a1.74,1.74,0,0,1-.45-.06,1.57,1.57,0,0,1-1-1.95l8.13-27.52a1.56,1.56,0,0,1,3,.88l-8.13,27.53A1.57,1.57,0,0,1,47.92,226.41Z"
          />
          <path
            fill="#0d173f"
            d="M64.18,225.79a1.47,1.47,0,0,1-.5-.09l-14.41-4.92a1.56,1.56,0,1,1,1-3l14.41,4.92a1.57,1.57,0,0,1-.51,3Z"
          />
          <circle fill="#0d173f" cx="57.52" cy="215.28" r="3.08" />
          <circle fill="#0d173f" cx="167.4" cy="216.09" r="3.08" />
          <path
            fill="#0d173f"
            d="M161.78,235.17h-.19a1.56,1.56,0,0,1-1.37-1.74c0-.15,1.71-15.31-5.75-28.44a1.57,1.57,0,1,1,2.72-1.55c8,14,6.22,29.7,6.14,30.36A1.56,1.56,0,0,1,161.78,235.17Z"
          />
          <path
            fill="#0d173f"
            d="M177.41,228.29a1.56,1.56,0,0,1-1.56-1.57c0-4-5.5-17.39-13.34-25.83a1.56,1.56,0,1,1,2.29-2.13c8.22,8.86,14.18,22.85,14.18,28A1.57,1.57,0,0,1,177.41,228.29Z"
          />
          <path
            fill="#0d173f"
            d="M165.38,225.85a6.94,6.94,0,0,1-3.89-1,1.57,1.57,0,0,1,1.79-2.57c.13.08,3.84,2.17,11.29-3.69a1.56,1.56,0,1,1,1.93,2.46C171.65,224.89,167.91,225.85,165.38,225.85Z"
          />
          <path
            fill="#0d173f"
            d="M94.83,48c-3.91.52-2,5.78.23,5.45S98,47.58,94.83,48Z"
          />
          <path
            fill="#0d173f"
            d="M123.19,44.56c-3.91.52-2,5.78.24,5.45S126.37,44.14,123.19,44.56Z"
          />
          <path
            fill="#0d173f"
            d="M113.93,125.87h-7.2a1.55,1.55,0,0,1-1.4-.86l-2.06-4.12a1.54,1.54,0,0,1-.08-1.19l2-6.17a1.57,1.57,0,0,1,1.49-1.07h7.2a1.56,1.56,0,0,1,1.48,1.07l2.06,6.17a1.54,1.54,0,0,1-.09,1.19L115.32,125A1.54,1.54,0,0,1,113.93,125.87Zm-6.24-3.13H113l1.33-2.67-1.49-4.48h-5l-1.49,4.48Z"
          />
          <path
            fill="#0d173f"
            d="M112.9,115.59h-3.09a1.57,1.57,0,0,1-1.26-2.49l8.22-11.31a1.58,1.58,0,0,1,1.08-.63,1.55,1.55,0,0,1,1.19.35l4.63,3.86a1.56,1.56,0,0,1,.56,1.23,1.58,1.58,0,0,1-.61,1.21l-9.77,7.46A1.64,1.64,0,0,1,112.9,115.59ZM118.32,105l-4.8,6.6,6.64-5.07Z"
          />
          <path
            fill="#0d173f"
            d="M107.76,115.59a1.53,1.53,0,0,1-.9-.29l-10.29-7.19a1.58,1.58,0,0,1-.64-1,1.5,1.5,0,0,1,.29-1.18l3.08-4.12a1.57,1.57,0,0,1,2.36-.17l8.23,8.23a1.58,1.58,0,0,1,.38,1.6l-1,3.09a1.6,1.6,0,0,1-1,1A1.67,1.67,0,0,1,107.76,115.59Zm-8.07-9.12,7.24,5.07.06-.18-6.27-6.27Z"
          />
          <path
            fill="#0d173f"
            d="M104.87,158.22a1.57,1.57,0,0,1-1.55-1.34L101,140.81a1.56,1.56,0,0,1,0-.61l4.15-16.28a1.57,1.57,0,0,1,1.52-1.18h7.2a1.56,1.56,0,0,1,1.42.92l7.4,16.28a1.46,1.46,0,0,1,.13.8l-1.4,14.06a1.57,1.57,0,0,1-1.35,1.4l-15,2Zm-.7-17.55,2,14.23,12.29-1.64,1.24-12.41-6.81-15h-5Z"
          />
          <path
            fill="#0d173f"
            d="M90.25,55.23a4.39,4.39,0,0,1-4.35-3.94l-.6-5.87a4.39,4.39,0,0,1,3.91-4.8l10-1a4.38,4.38,0,0,1,4.8,3.92l.6,5.86a4.37,4.37,0,0,1-3.91,4.8h0l-10,1ZM100.54,53h0ZM99.62,41.9h-.21l-10,1a2.08,2.08,0,0,0-1.85,2.27l.6,5.87a2.07,2.07,0,0,0,2.27,1.84l10-1a2.06,2.06,0,0,0,1.84-2.26l-.6-5.87A2.07,2.07,0,0,0,99.62,41.9Z"
          />
          <path
            fill="#0d173f"
            d="M119.92,52.19a4.38,4.38,0,0,1-4.35-3.93l-.6-5.87a4.39,4.39,0,0,1,3.91-4.8l10-1a4.36,4.36,0,0,1,3.21,1,4.31,4.31,0,0,1,1.59,2.95l.6,5.87a4.38,4.38,0,0,1-3.91,4.8l-10,1A3.39,3.39,0,0,1,119.92,52.19Zm9.37-13.33-.21,0-10,1a2.08,2.08,0,0,0-1.85,2.27l.6,5.87a2.08,2.08,0,0,0,2.27,1.84l10-1h0a2.06,2.06,0,0,0,1.39-.75,2,2,0,0,0,.45-1.51l-.6-5.87a2,2,0,0,0-.75-1.39A2.05,2.05,0,0,0,129.29,38.86Z"
          />
          <path
            fill="#0d173f"
            d="M140.67,41.74a1.24,1.24,0,0,1-1.19-.86l-.16-.46-5.57,1.29a1.25,1.25,0,0,1-.56-2.44l6.68-1.54a1.25,1.25,0,0,1,1.47.82l.51,1.54a1.24,1.24,0,0,1-.79,1.58A1.07,1.07,0,0,1,140.67,41.74Z"
          />
          <path
            fill="#0d173f"
            d="M89.35,38.41a1.85,1.85,0,0,1-1.53-3.36l.09,0c3-1.6,10-5.33,11.21-3.46s.41,2.19-1.93,3.67A55.05,55.05,0,0,1,89.35,38.41Z"
          />
          <path
            fill="#0d173f"
            d="M117.6,36.7a1.85,1.85,0,0,1-.31-3.68h.1c3.39-.49,11.22-1.63,11.73.54s-.36,2.2-3.07,2.8A54.18,54.18,0,0,1,117.6,36.7Z"
          />
          <path
            fill="#0d173f"
            d="M95.67,7.58C83.84,4.75,61.47,8.86,75.49,54.52a7.45,7.45,0,0,1,4,.37L80,41.26S78.7,32,85.39,30.46c3.57-.82,15.44-2.81,21.85-7.8,3.09-2.4,3.6-3.43,3.6-3.43a25.2,25.2,0,0,0,20.57,7.63c5.4,6.94,5.91,15.43,6.68,19.54,2.06,0,3.1-14.74-2.31-30.08C131.67,4.66,113.93-5.28,95.67,7.58Z"
          />
          <path
            fill="#0d173f"
            d="M80.92,57.36l-2.15-1.1h0a6.76,6.76,0,0,0-3.1-.21l-1.28.15L74,55c-6.51-21.2-6-36,1.37-43.87C82,4,91.64,5.16,95.35,5.93,103.74.22,113-1.43,121.42,1.26c7.42,2.37,13.49,7.94,15.82,14.55,4.76,13.49,4.89,28,2.65,31.12a2.17,2.17,0,0,1-1.8,1h-1.28l-.23-1.25c-.12-.65-.24-1.4-.37-2.23-.64-4.24-1.61-10.57-5.53-16a26.72,26.72,0,0,1-19.75-6.95,29.43,29.43,0,0,1-2.74,2.37c-5.9,4.59-16,6.71-20.81,7.73L85.73,32c-5.22,1.21-4.26,8.77-4.22,9.09l0,.13Zm-4.1-4.46A10.56,10.56,0,0,1,78,53l.44-11.63C78,37.6,78.74,30.41,85,29c.45-.11,1-.23,1.7-.37,4.62-1,14.21-3,19.55-7.15a15.36,15.36,0,0,0,3.21-3l1-2.09L112,18.23a23.91,23.91,0,0,0,19.26,7.09l.84-.07.52.66a31.22,31.22,0,0,1,5.57,12.28,68.44,68.44,0,0,0-3.87-21.36c-2-5.71-7.33-10.55-13.85-12.63-7.69-2.46-16.19-.81-23.92,4.64l-.57.4-.68-.16c-2.64-.63-11.72-2.2-17.67,4.13-6.39,6.81-6.74,20.51-1,39.69Z"
          />
          <path
            fill="none"
            stroke="#0d173f"
            strokeLinecap="round"
            strokeMiterlimit="10"
            strokeWidth="3px"
            d="M101.43,71.81c2,.83,7,2.49,10.56,1.6"
          />
          <path
            fill="#0d173f"
            d="M72.12,55.59a1.25,1.25,0,0,1-1.24-1.12c-.23-2.22,1-5.48,3.83-5.84L86.28,48a1.24,1.24,0,0,1,1.31,1.18,1.25,1.25,0,0,1-1.18,1.32l-11.47.6c-1.18.15-1.67,2.13-1.57,3.09a1.26,1.26,0,0,1-1.12,1.38Z"
          />
          <path
            fill="#0d173f"
            d="M98.37,158.22A1.57,1.57,0,0,1,96.83,157l-8.61-44.18a1.56,1.56,0,0,1,3.07-.6l8.61,44.18a1.55,1.55,0,0,1-1.23,1.83A1.6,1.6,0,0,1,98.37,158.22Z"
          />
          <path
            fill="#0d173f"
            d="M89.24,158.53a1.56,1.56,0,0,1-.82-.24c-.31-.19-7.63-4.77-9.16-9.88-.88-2.94,1.11-10.71,3.64-16.75-4.2-.88-7.13-2.43-9.19-6.37C73.15,124.2,72,118.67,80.56,93a1.57,1.57,0,1,1,3,1c-4.24,12.68-8.14,27.72-7,29.89,1.78,3.42,4.28,4.37,8.88,5.09a1.58,1.58,0,0,1,1.14.81,1.6,1.6,0,0,1,0,1.4c-3,6.35-4.87,14.45-4.29,16.37,1,3.3,6,7,7.81,8.12a1.57,1.57,0,0,1-.83,2.9Z"
          />
          <path
            fill="#0d173f"
            d="M127.81,155.7a1.55,1.55,0,0,1-1.13-.49,1.57,1.57,0,0,1-.41-1.34l7.18-42V91.4a1.56,1.56,0,0,1,3.12-.1,1.58,1.58,0,0,1,.8-1,1.56,1.56,0,0,1,2.11.66c.91,1.73,1.82,3.44,2.72,5.11,5.18,9.68,9.27,17.33,9,21.67-.34,6.11-5.36,11.12-8.43,14.14.43,1,.88,1.88,1.31,2.78,2.07,4.27,3.7,7.65,2.94,10.18-1.91,6.38-5.31,8.94-5.46,9a1.5,1.5,0,0,1-.74.29L128,155.69ZM136.57,92v20a1.18,1.18,0,0,1,0,.26l-6.85,40.1L140,151.09a16.26,16.26,0,0,0,4-7.18c.41-1.36-1.27-4.85-2.75-7.92-.6-1.24-1.22-2.53-1.81-3.85a1.57,1.57,0,0,1,.33-1.74l.69-.68c2.73-2.7,7.32-7.22,7.59-12.18.2-3.47-4.11-11.51-8.66-20-.9-1.68-1.82-3.4-2.73-5.14A1.78,1.78,0,0,1,136.57,92Z"
          />
        </g>
      </g>
    </svg>